<?xml version="1.0" encoding="UTF-8" standalone="no"?>
<!DOCTYPE svg PUBLIC "-//W3C//DTD SVG 1.1//EN"
 "http://www.w3.org/Graphics/SVG/1.1/DTD/svg11.dtd">
<!-- Generated by graphviz version 2.50.0 (0)
 -->
<!-- Title: G Pages: 1 -->
<svg width="1801pt" height="1670pt"
 viewBox="0.00 0.00 1801.00 1670.00" xmlns="http://www.w3.org/2000/svg" xmlns:xlink="http://www.w3.org/1999/xlink">
<g id="graph0" class="graph" transform="scale(1 1) rotate(0) translate(4 1643)">
<title>G</title>
<polygon fill="white" stroke="transparent" points="-4,27 -4,-1643 1797,-1643 1797,27 -4,27"/>
<text text-anchor="middle" x="896.5" y="15.2" font-family="Times,serif" font-size="14.00">Call graph</text>
<g id="clust7" class="cluster">
<title>cluster_align_c</title>
<polygon fill="lightgrey" stroke="lightgrey" points="359.73,-1185.13 359.73,-1639.13 730.73,-1639.13 730.73,-1185.13 359.73,-1185.13"/>
<text text-anchor="middle" x="545.23" y="-1623.93" font-family="Times,serif" font-size="14.00">align.c</text>
</g>
<g id="clust8" class="cluster">
<title>cluster_align_h</title>
<polygon fill="none" stroke="blue" points="367.28,-1193.57 367.28,-1608.57 722.28,-1608.57 722.28,-1193.57 367.28,-1193.57"/>
<text text-anchor="middle" x="544.78" y="-1593.37" font-family="Times,serif" font-size="14.00">align.h</text>
</g>
<g id="clust9" class="cluster">
<title>cluster_check_overlapping_areas</title>
<polygon fill="lightgrey" stroke="lightgrey" points="1152.24,-1223.64 1152.24,-1403.64 1670.24,-1403.64 1670.24,-1223.64 1152.24,-1223.64"/>
<text text-anchor="middle" x="1411.24" y="-1388.44" font-family="Times,serif" font-size="14.00">check_overlapping_areas.c</text>
</g>
<g id="clust10" class="cluster">
<title>cluster_check_overlapping_areas_h</title>
<polygon fill="none" stroke="blue" points="1160.48,-1231.78 1160.48,-1306.78 1428.48,-1306.78 1428.48,-1231.78 1160.48,-1231.78"/>
<text text-anchor="middle" x="1294.48" y="-1291.58" font-family="Times,serif" font-size="14.00">check_overlapping_areas.h</text>
</g>
<g id="clust11" class="cluster">
<title>cluster_compute_addresses_c</title>
<polygon fill="lightgrey" stroke="lightgrey" points="668.03,-667.69 668.03,-781.69 904.03,-781.69 904.03,-667.69 668.03,-667.69"/>
<text text-anchor="middle" x="786.03" y="-766.49" font-family="Times,serif" font-size="14.00">compute_addresses.c</text>
</g>
<g id="clust12" class="cluster">
<title>cluster_compute_addresses_h</title>
<polygon fill="none" stroke="blue" points="676.16,-675.59 676.16,-750.59 896.16,-750.59 896.16,-675.59 676.16,-675.59"/>
<text text-anchor="middle" x="786.16" y="-735.39" font-family="Times,serif" font-size="14.00">compute_addresses.h</text>
</g>
<g id="clust13" class="cluster">
<title>cluster_compute_size_c</title>
<polygon fill="lightgrey" stroke="lightgrey" points="1221.85,-999.46 1221.85,-1113.46 1400.85,-1113.46 1400.85,-999.46 1221.85,-999.46"/>
<text text-anchor="middle" x="1311.35" y="-1098.26" font-family="Times,serif" font-size="14.00">compute_size.c</text>
</g>
<g id="clust14" class="cluster">
<title>cluster_compute_size_h</title>
<polygon fill="none" stroke="blue" points="1230.04,-1007.62 1230.04,-1082.62 1393.04,-1082.62 1393.04,-1007.62 1230.04,-1007.62"/>
<text text-anchor="middle" x="1311.54" y="-1067.42" font-family="Times,serif" font-size="14.00">compute_size.h</text>
</g>
<g id="clust15" class="cluster">
<title>cluster_conv_string_c</title>
<polygon fill="lightgrey" stroke="lightgrey" points="799.36,-1038.85 799.36,-1196.85 1039.36,-1196.85 1039.36,-1038.85 799.36,-1038.85"/>
<text text-anchor="middle" x="919.36" y="-1181.65" font-family="Times,serif" font-size="14.00">conv_string.c</text>
</g>
<g id="clust16" class="cluster">
<title>cluster_conv_string_h</title>
<polygon fill="none" stroke="blue" points="807,-1046.97 807,-1165.97 1031,-1165.97 1031,-1046.97 807,-1046.97"/>
<text text-anchor="middle" x="919" y="-1150.77" font-family="Times,serif" font-size="14.00">conv_string.h</text>
</g>
<g id="clust17" class="cluster">
<title>cluster_def_statement_c</title>
<polygon fill="lightgrey" stroke="lightgrey" points="720.24,-503.64 720.24,-617.64 868.24,-617.64 868.24,-503.64 720.24,-503.64"/>
<text text-anchor="middle" x="794.24" y="-602.44" font-family="Times,serif" font-size="14.00">def_statement.c</text>
</g>
<g id="clust18" class="cluster">
<title>cluster_def_statement_h</title>
<polygon fill="none" stroke="blue" points="728.48,-511.78 728.48,-586.78 860.48,-586.78 860.48,-511.78 728.48,-511.78"/>
<text text-anchor="middle" x="794.48" y="-571.58" font-family="Times,serif" font-size="14.00">def_statement.h</text>
</g>
<g id="clust19" class="cluster">
<title>cluster_find_mnemo_c</title>
<polygon fill="lightgrey" stroke="lightgrey" points="1008.24,-503.64 1008.24,-617.64 1174.24,-617.64 1174.24,-503.64 1008.24,-503.64"/>
<text text-anchor="middle" x="1091.24" y="-602.44" font-family="Times,serif" font-size="14.00">find_mnemo.c</text>
</g>
<g id="clust20" class="cluster">
<title>cluster_find_mnemo_h</title>
<polygon fill="none" stroke="blue" points="1016.48,-511.78 1016.48,-586.78 1166.48,-586.78 1166.48,-511.78 1016.48,-511.78"/>
<text text-anchor="middle" x="1091.48" y="-571.58" font-family="Times,serif" font-size="14.00">find_mnemo.h</text>
</g>
<g id="clust21" class="cluster">
<title>cluster_find_labels_c</title>
<polygon fill="lightgrey" stroke="lightgrey" points="1007.86,-723.02 1007.86,-837.02 1159.86,-837.02 1159.86,-723.02 1007.86,-723.02"/>
<text text-anchor="middle" x="1083.86" y="-821.82" font-family="Times,serif" font-size="14.00">find_labels.c</text>
</g>
<g id="clust22" class="cluster">
<title>cluster_find_labels_h</title>
<polygon fill="none" stroke="blue" points="1016.09,-731.36 1016.09,-806.36 1152.09,-806.36 1152.09,-731.36 1016.09,-731.36"/>
<text text-anchor="middle" x="1084.09" y="-791.16" font-family="Times,serif" font-size="14.00">find_labels.h</text>
</g>
<g id="clust23" class="cluster">
<title>cluster_import_symbols_c</title>
<polygon fill="lightgrey" stroke="lightgrey" points="1592.03,-707.42 1592.03,-821.42 1793.03,-821.42 1793.03,-707.42 1592.03,-707.42"/>
<text text-anchor="middle" x="1692.53" y="-806.22" font-family="Times,serif" font-size="14.00">import_symbols.c</text>
</g>
<g id="clust24" class="cluster">
<title>cluster_import_symbols_h</title>
<polygon fill="none" stroke="blue" points="1600.46,-715.78 1600.46,-790.78 1785.46,-790.78 1785.46,-715.78 1600.46,-715.78"/>
<text text-anchor="middle" x="1692.96" y="-775.58" font-family="Times,serif" font-size="14.00">import_symbols.h</text>
</g>
<g id="clust25" class="cluster">
<title>cluster_parse_line_c</title>
<polygon fill="lightgrey" stroke="lightgrey" points="432.24,-431.64 432.24,-545.64 580.24,-545.64 580.24,-431.64 432.24,-431.64"/>
<text text-anchor="middle" x="506.24" y="-530.44" font-family="Times,serif" font-size="14.00">parse_line.c</text>
</g>
<g id="clust26" class="cluster">
<title>cluster_parse_line_h</title>
<polygon fill="none" stroke="blue" points="440.48,-439.78 440.48,-514.78 572.48,-514.78 572.48,-439.78 440.48,-439.78"/>
<text text-anchor="middle" x="506.48" y="-499.58" font-family="Times,serif" font-size="14.00">parse_line.h</text>
</g>
<g id="clust27" class="cluster">
<title>cluster_pointer_c</title>
<polygon fill="lightgrey" stroke="lightgrey" points="401.12,0.3 401.12,-157.7 630.12,-157.7 630.12,0.3 401.12,0.3"/>
<text text-anchor="middle" x="515.62" y="-142.5" font-family="Times,serif" font-size="14.00">pointer.c</text>
</g>
<g id="clust28" class="cluster">
<title>cluster_pointer_h</title>
<polygon fill="none" stroke="blue" points="409,-7.23 409,-126.23 622,-126.23 622,-7.23 409,-7.23"/>
<text text-anchor="middle" x="515.5" y="-111.03" font-family="Times,serif" font-size="14.00">pointer.h</text>
</g>
<g id="clust29" class="cluster">
<title>cluster_rpn_c</title>
<polygon fill="lightgrey" stroke="lightgrey" points="-0.48,-620.08 -0.48,-1177.08 580.52,-1177.08 580.52,-620.08 -0.48,-620.08"/>
<text text-anchor="middle" x="290.02" y="-1161.88" font-family="Times,serif" font-size="14.00">rpn.c</text>
</g>
<g id="clust31" class="cluster">
<title>cluster_rpn_h</title>
<polygon fill="none" stroke="blue" points="219.31,-840.45 219.31,-915.45 327.31,-915.45 327.31,-840.45 219.31,-840.45"/>
<text text-anchor="middle" x="273.31" y="-900.25" font-family="Times,serif" font-size="14.00">rpn.h</text>
</g>
<g id="clust32" class="cluster">
<title>cluster_scopes_c</title>
<polygon fill="lightgrey" stroke="lightgrey" points="1249,-504.5 1249,-808.5 1584,-808.5 1584,-504.5 1249,-504.5"/>
<text text-anchor="middle" x="1416.5" y="-793.3" font-family="Times,serif" font-size="14.00">scopes.c</text>
</g>
<g id="clust33" class="cluster">
<title>cluster_scopes_h</title>
<polygon fill="none" stroke="blue" points="1257.08,-512.92 1257.08,-777.92 1576.08,-777.92 1576.08,-512.92 1257.08,-512.92"/>
<text text-anchor="middle" x="1416.58" y="-762.72" font-family="Times,serif" font-size="14.00">scopes.h</text>
</g>
<g id="clust34" class="cluster">
<title>cluster_sym_c</title>
<polygon fill="lightgrey" stroke="lightgrey" points="136.71,-317.71 136.71,-529.71 347.71,-529.71 347.71,-317.71 136.71,-317.71"/>
<text text-anchor="middle" x="242.21" y="-514.51" font-family="Times,serif" font-size="14.00">sym.c</text>
</g>
<g id="clust35" class="cluster">
<title>cluster_sym_h</title>
<polygon fill="none" stroke="blue" points="144.6,-325.89 144.6,-498.89 339.6,-498.89 339.6,-325.89 144.6,-325.89"/>
<text text-anchor="middle" x="242.1" y="-483.69" font-family="Times,serif" font-size="14.00">sym.h</text>
</g>
<!-- symtonum -->
<g id="node1" class="node">
<title>symtonum</title>
<g id="a_node1"><a xlink:href="../src/sym.c" xlink:title="symtonum">
<ellipse fill="none" stroke="black" cx="211.98" cy="-400.56" rx="59.59" ry="18"/>
<text text-anchor="middle" x="211.98" y="-396.86" font-family="Times,serif" font-size="14.00">symtonum</text>
</a>
</g>
</g>
<!-- pointerlen -->
<g id="node2" class="node">
<title>pointerlen</title>
<g id="a_node2"><a xlink:href="../src/pointer.c" xlink:title="pointerlen">
<ellipse fill="none" stroke="black" cx="555.59" cy="-77.71" rx="58.49" ry="18"/>
<text text-anchor="middle" x="555.59" y="-74.01" font-family="Times,serif" font-size="14.00">pointerlen</text>
</a>
</g>
</g>
<!-- symtonum&#45;&gt;pointerlen -->
<g id="edge1" class="edge">
<title>symtonum&#45;&gt;pointerlen</title>
<path fill="none" stroke="black" d="M268.98,-406C360.69,-406 530.83,-406 530.83,-406 530.83,-406 530.83,-104.44 530.83,-104.44"/>
<polygon fill="black" stroke="black" points="534.33,-104.44 530.83,-94.44 527.33,-104.44 534.33,-104.44"/>
</g>
<!-- mempointer -->
<g id="node3" class="node">
<title>mempointer</title>
<g id="a_node3"><a xlink:href="../src/pointer.c" xlink:title="mempointer">
<ellipse fill="none" stroke="black" cx="484.54" cy="-33.71" rx="67.69" ry="18"/>
<text text-anchor="middle" x="484.54" y="-30.01" font-family="Times,serif" font-size="14.00">mempointer</text>
</a>
</g>
</g>
<!-- symtonum&#45;&gt;mempointer -->
<g id="edge2" class="edge">
<title>symtonum&#45;&gt;mempointer</title>
<path fill="none" stroke="black" d="M267.87,-394C334.16,-394 435.77,-394 435.77,-394 435.77,-394 435.77,-56.53 435.77,-56.53"/>
<polygon fill="black" stroke="black" points="439.27,-56.53 435.77,-46.53 432.27,-56.53 439.27,-56.53"/>
</g>
<!-- symlen -->
<g id="node40" class="node">
<title>symlen</title>
<g id="a_node40"><a xlink:href="../src/sym.c" xlink:title="symlen">
<ellipse fill="none" stroke="black" cx="287.83" cy="-449.53" rx="44.39" ry="18"/>
<text text-anchor="middle" x="287.83" y="-445.83" font-family="Times,serif" font-size="14.00">symlen</text>
</a>
</g>
</g>
<!-- symtonum&#45;&gt;symlen -->
<g id="edge31" class="edge">
<title>symtonum&#45;&gt;symlen</title>
<path fill="none" stroke="black" d="M257.71,-412.17C257.71,-412.17 257.71,-426.28 257.71,-426.28"/>
<polygon fill="black" stroke="black" points="254.21,-426.28 257.71,-436.28 261.21,-426.28 254.21,-426.28"/>
</g>
<!-- rpneval -->
<g id="node4" class="node">
<title>rpneval</title>
<g id="a_node4"><a xlink:href="../src/rpn.c" xlink:title="rpneval">
<ellipse fill="none" stroke="black" cx="273.62" cy="-866.01" rx="46.29" ry="18"/>
<text text-anchor="middle" x="273.62" y="-862.31" font-family="Times,serif" font-size="14.00">rpneval</text>
</a>
</g>
</g>
<!-- rpneval&#45;&gt;symtonum -->
<g id="edge3" class="edge">
<title>rpneval&#45;&gt;symtonum</title>
<path fill="none" stroke="black" d="M248.1,-851C216.57,-851 167.06,-851 167.06,-851 167.06,-851 167.06,-422.61 167.06,-422.61"/>
<polygon fill="black" stroke="black" points="170.56,-422.61 167.06,-412.61 163.56,-422.61 170.56,-422.61"/>
</g>
<!-- convert_str_num -->
<g id="node5" class="node">
<title>convert_str_num</title>
<g id="a_node5"><a xlink:href="../src/conv_string.c" xlink:title="convert_str_num">
<ellipse fill="none" stroke="black" cx="903.32" cy="-1073.36" rx="88.28" ry="18"/>
<text text-anchor="middle" x="903.32" y="-1069.66" font-family="Times,serif" font-size="14.00">convert_str_num</text>
</a>
</g>
</g>
<!-- rpneval&#45;&gt;convert_str_num -->
<g id="edge4" class="edge">
<title>rpneval&#45;&gt;convert_str_num</title>
<path fill="none" stroke="black" d="M299.56,-881.14C299.56,-927.27 299.56,-1063 299.56,-1063 299.56,-1063 820.8,-1063 820.8,-1063"/>
<polygon fill="black" stroke="black" points="820.8,-1066.5 830.8,-1063 820.8,-1059.5 820.8,-1066.5"/>
</g>
<!-- rpnadd -->
<g id="node21" class="node">
<title>rpnadd</title>
<ellipse fill="none" stroke="black" cx="301.77" cy="-1127.79" rx="44.39" ry="18"/>
<text text-anchor="middle" x="301.77" y="-1124.09" font-family="Times,serif" font-size="14.00">rpnadd</text>
</g>
<!-- rpneval&#45;&gt;rpnadd -->
<g id="edge14" class="edge">
<title>rpneval&#45;&gt;rpnadd</title>
<path fill="none" stroke="black" d="M289.46,-883.19C289.46,-883.19 289.46,-1100.21 289.46,-1100.21"/>
<polygon fill="black" stroke="black" points="285.96,-1100.21 289.46,-1110.21 292.96,-1100.21 285.96,-1100.21"/>
</g>
<!-- rpnsub -->
<g id="node22" class="node">
<title>rpnsub</title>
<ellipse fill="none" stroke="black" cx="96.17" cy="-739.25" rx="43.59" ry="18"/>
<text text-anchor="middle" x="96.17" y="-735.55" font-family="Times,serif" font-size="14.00">rpnsub</text>
</g>
<!-- rpneval&#45;&gt;rpnsub -->
<g id="edge15" class="edge">
<title>rpneval&#45;&gt;rpnsub</title>
<path fill="none" stroke="black" d="M239.17,-854C197.06,-854 131.31,-854 131.31,-854 131.31,-854 131.31,-760.26 131.31,-760.26"/>
<polygon fill="black" stroke="black" points="134.81,-760.26 131.31,-750.26 127.81,-760.26 134.81,-760.26"/>
</g>
<!-- rpnmul -->
<g id="node23" class="node">
<title>rpnmul</title>
<ellipse fill="none" stroke="black" cx="167.1" cy="-882.78" rx="44.39" ry="18"/>
<text text-anchor="middle" x="167.1" y="-879.08" font-family="Times,serif" font-size="14.00">rpnmul</text>
</g>
<!-- rpneval&#45;&gt;rpnmul -->
<g id="edge16" class="edge">
<title>rpneval&#45;&gt;rpnmul</title>
<path fill="none" stroke="black" d="M232.13,-874C232.13,-874 215.86,-874 215.86,-874"/>
<polygon fill="black" stroke="black" points="215.86,-870.5 205.86,-874 215.86,-877.5 215.86,-870.5"/>
</g>
<!-- rpndiv -->
<g id="node24" class="node">
<title>rpndiv</title>
<ellipse fill="none" stroke="black" cx="48.76" cy="-860.82" rx="40.89" ry="18"/>
<text text-anchor="middle" x="48.76" y="-857.12" font-family="Times,serif" font-size="14.00">rpndiv</text>
</g>
<!-- rpneval&#45;&gt;rpndiv -->
<g id="edge17" class="edge">
<title>rpneval&#45;&gt;rpndiv</title>
<path fill="none" stroke="black" d="M232.12,-858C232.12,-858 99.27,-858 99.27,-858"/>
<polygon fill="black" stroke="black" points="99.27,-854.5 89.27,-858 99.27,-861.5 99.27,-854.5"/>
</g>
<!-- rpnlsh -->
<g id="node25" class="node">
<title>rpnlsh</title>
<ellipse fill="none" stroke="black" cx="462.96" cy="-713.9" rx="40.09" ry="18"/>
<text text-anchor="middle" x="462.96" y="-710.2" font-family="Times,serif" font-size="14.00">rpnlsh</text>
</g>
<!-- rpneval&#45;&gt;rpnlsh -->
<g id="edge18" class="edge">
<title>rpneval&#45;&gt;rpnlsh</title>
<path fill="none" stroke="black" d="M296.61,-850.22C296.61,-813.6 296.61,-726 296.61,-726 296.61,-726 422.83,-726 422.83,-726"/>
<polygon fill="black" stroke="black" points="422.83,-729.5 432.83,-726 422.83,-722.5 422.83,-729.5"/>
</g>
<!-- rpnrsh -->
<g id="node26" class="node">
<title>rpnrsh</title>
<ellipse fill="none" stroke="black" cx="446.65" cy="-898.39" rx="42.49" ry="18"/>
<text text-anchor="middle" x="446.65" y="-894.69" font-family="Times,serif" font-size="14.00">rpnrsh</text>
</g>
<!-- rpneval&#45;&gt;rpnrsh -->
<g id="edge19" class="edge">
<title>rpneval&#45;&gt;rpnrsh</title>
<path fill="none" stroke="black" d="M318.12,-861C358.14,-861 410.68,-861 410.68,-861 410.68,-861 410.68,-878.56 410.68,-878.56"/>
<polygon fill="black" stroke="black" points="407.18,-878.56 410.68,-888.56 414.18,-878.56 407.18,-878.56"/>
</g>
<!-- rpnmod -->
<g id="node27" class="node">
<title>rpnmod</title>
<ellipse fill="none" stroke="black" cx="228.72" cy="-776.97" rx="46.59" ry="18"/>
<text text-anchor="middle" x="228.72" y="-773.27" font-family="Times,serif" font-size="14.00">rpnmod</text>
</g>
<!-- rpneval&#45;&gt;rpnmod -->
<g id="edge20" class="edge">
<title>rpneval&#45;&gt;rpnmod</title>
<path fill="none" stroke="black" d="M251.5,-850.09C251.5,-850.09 251.5,-802.75 251.5,-802.75"/>
<polygon fill="black" stroke="black" points="255,-802.75 251.5,-792.75 248,-802.75 255,-802.75"/>
</g>
<!-- rpnand -->
<g id="node28" class="node">
<title>rpnand</title>
<ellipse fill="none" stroke="black" cx="527.98" cy="-833.61" rx="44.39" ry="18"/>
<text text-anchor="middle" x="527.98" y="-829.91" font-family="Times,serif" font-size="14.00">rpnand</text>
</g>
<!-- rpneval&#45;&gt;rpnand -->
<g id="edge21" class="edge">
<title>rpneval&#45;&gt;rpnand</title>
<path fill="none" stroke="black" d="M315.49,-858.16C315.49,-847.3 315.49,-829 315.49,-829 315.49,-829 475.24,-829 475.24,-829"/>
<polygon fill="black" stroke="black" points="475.24,-832.5 485.24,-829 475.24,-825.5 475.24,-832.5"/>
</g>
<!-- rpnor -->
<g id="node29" class="node">
<title>rpnor</title>
<ellipse fill="none" stroke="black" cx="343.33" cy="-753.19" rx="36.29" ry="18"/>
<text text-anchor="middle" x="343.33" y="-749.49" font-family="Times,serif" font-size="14.00">rpnor</text>
</g>
<!-- rpneval&#45;&gt;rpnor -->
<g id="edge22" class="edge">
<title>rpneval&#45;&gt;rpnor</title>
<path fill="none" stroke="black" d="M311.21,-855.19C311.21,-855.19 311.21,-771.92 311.21,-771.92"/>
<polygon fill="black" stroke="black" points="314.71,-771.92 311.21,-761.92 307.71,-771.92 314.71,-771.92"/>
</g>
<!-- rpnxor -->
<g id="node30" class="node">
<title>rpnxor</title>
<ellipse fill="none" stroke="black" cx="516.27" cy="-974.93" rx="42.49" ry="18"/>
<text text-anchor="middle" x="516.27" y="-971.23" font-family="Times,serif" font-size="14.00">rpnxor</text>
</g>
<!-- rpneval&#45;&gt;rpnxor -->
<g id="edge23" class="edge">
<title>rpneval&#45;&gt;rpnxor</title>
<path fill="none" stroke="black" d="M309.66,-877.52C309.66,-903.21 309.66,-963 309.66,-963 309.66,-963 474.44,-963 474.44,-963"/>
<polygon fill="black" stroke="black" points="474.44,-966.5 484.44,-963 474.44,-959.5 474.44,-966.5"/>
</g>
<!-- rpninv -->
<g id="node31" class="node">
<title>rpninv</title>
<ellipse fill="none" stroke="black" cx="371.46" cy="-1023.24" rx="40.89" ry="18"/>
<text text-anchor="middle" x="371.46" y="-1019.54" font-family="Times,serif" font-size="14.00">rpninv</text>
</g>
<!-- rpneval&#45;&gt;rpninv -->
<g id="edge24" class="edge">
<title>rpneval&#45;&gt;rpninv</title>
<path fill="none" stroke="black" d="M318.66,-870C337.51,-870 355.12,-870 355.12,-870 355.12,-870 355.12,-996.55 355.12,-996.55"/>
<polygon fill="black" stroke="black" points="351.62,-996.55 355.12,-1006.55 358.62,-996.55 351.62,-996.55"/>
</g>
<!-- rpnneg -->
<g id="node32" class="node">
<title>rpnneg</title>
<ellipse fill="none" stroke="black" cx="225.06" cy="-988.78" rx="44.39" ry="18"/>
<text text-anchor="middle" x="225.06" y="-985.08" font-family="Times,serif" font-size="14.00">rpnneg</text>
</g>
<!-- rpneval&#45;&gt;rpnneg -->
<g id="edge25" class="edge">
<title>rpneval&#45;&gt;rpnneg</title>
<path fill="none" stroke="black" d="M248.36,-881.31C248.36,-881.31 248.36,-963.29 248.36,-963.29"/>
<polygon fill="black" stroke="black" points="244.86,-963.29 248.36,-973.29 251.86,-963.29 244.86,-963.29"/>
</g>
<!-- rpndivsign -->
<g id="node33" class="node">
<title>rpndivsign</title>
<ellipse fill="none" stroke="black" cx="336.41" cy="-646.48" rx="60.39" ry="18"/>
<text text-anchor="middle" x="336.41" y="-642.78" font-family="Times,serif" font-size="14.00">rpndivsign</text>
</g>
<!-- rpneval&#45;&gt;rpndivsign -->
<g id="edge26" class="edge">
<title>rpneval&#45;&gt;rpndivsign</title>
<path fill="none" stroke="black" d="M286.29,-848.42C286.29,-848.42 286.29,-666.99 286.29,-666.99"/>
<polygon fill="black" stroke="black" points="289.79,-666.99 286.29,-656.99 282.79,-666.99 289.79,-666.99"/>
</g>
<!-- rpnrshsign -->
<g id="node34" class="node">
<title>rpnrshsign</title>
<ellipse fill="none" stroke="black" cx="74.04" cy="-995.41" rx="61.99" ry="18"/>
<text text-anchor="middle" x="74.04" y="-991.71" font-family="Times,serif" font-size="14.00">rpnrshsign</text>
</g>
<!-- rpneval&#45;&gt;rpnrshsign -->
<g id="edge27" class="edge">
<title>rpneval&#45;&gt;rpnrshsign</title>
<path fill="none" stroke="black" d="M229.22,-861C179.66,-861 106.31,-861 106.31,-861 106.31,-861 106.31,-969.99 106.31,-969.99"/>
<polygon fill="black" stroke="black" points="102.81,-969.99 106.31,-979.99 109.81,-969.99 102.81,-969.99"/>
</g>
<!-- rpnmodsign -->
<g id="node35" class="node">
<title>rpnmodsign</title>
<ellipse fill="none" stroke="black" cx="158.98" cy="-1089.37" rx="66.09" ry="18"/>
<text text-anchor="middle" x="158.98" y="-1085.67" font-family="Times,serif" font-size="14.00">rpnmodsign</text>
</g>
<!-- rpneval&#45;&gt;rpnmodsign -->
<g id="edge28" class="edge">
<title>rpneval&#45;&gt;rpnmodsign</title>
<path fill="none" stroke="black" d="M279.36,-883.97C279.36,-935.64 279.36,-1081 279.36,-1081 279.36,-1081 227.76,-1081 227.76,-1081"/>
<polygon fill="black" stroke="black" points="227.76,-1077.5 217.76,-1081 227.76,-1084.5 227.76,-1077.5"/>
</g>
<!-- import_symbols -->
<g id="node6" class="node">
<title>import_symbols</title>
<g id="a_node6"><a xlink:href="../src/import_symbols.c" xlink:title="import_symbols">
<ellipse fill="none" stroke="black" cx="1692.66" cy="-741.81" rx="84.49" ry="18"/>
<text text-anchor="middle" x="1692.66" y="-738.11" font-family="Times,serif" font-size="14.00">import_symbols</text>
</a>
</g>
</g>
<!-- root_scope -->
<g id="node7" class="node">
<title>root_scope</title>
<g id="a_node7"><a xlink:href="../src/scopes.c" xlink:title="root_scope">
<ellipse fill="none" stroke="black" cx="1384.91" cy="-599.08" rx="60.39" ry="18"/>
<text text-anchor="middle" x="1384.91" y="-595.38" font-family="Times,serif" font-size="14.00">root_scope</text>
</a>
</g>
</g>
<!-- import_symbols&#45;&gt;root_scope -->
<g id="edge5" class="edge">
<title>import_symbols&#45;&gt;root_scope</title>
<path fill="none" stroke="black" d="M1692.66,-723.72C1692.66,-685.29 1692.66,-599 1692.66,-599 1692.66,-599 1455.71,-599 1455.71,-599"/>
<polygon fill="black" stroke="black" points="1455.71,-595.5 1445.71,-599 1455.71,-602.5 1455.71,-595.5"/>
</g>
<!-- find_labels -->
<g id="node8" class="node">
<title>find_labels</title>
<g id="a_node8"><a xlink:href="../src/find_labels.c" xlink:title="find_labels">
<ellipse fill="none" stroke="black" cx="1083.86" cy="-757.52" rx="59.59" ry="18"/>
<text text-anchor="middle" x="1083.86" y="-753.82" font-family="Times,serif" font-size="14.00">find_labels</text>
</a>
</g>
</g>
<!-- find_labels&#45;&gt;root_scope -->
<g id="edge6" class="edge">
<title>find_labels&#45;&gt;root_scope</title>
<path fill="none" stroke="black" d="M1064.4,-740.26C1064.4,-699.17 1064.4,-599 1064.4,-599 1064.4,-599 1314.25,-599 1314.25,-599"/>
<polygon fill="black" stroke="black" points="1314.25,-602.5 1324.25,-599 1314.25,-595.5 1314.25,-602.5"/>
</g>
<!-- parent_scope -->
<g id="node9" class="node">
<title>parent_scope</title>
<g id="a_node9"><a xlink:href="../src/scopes.c" xlink:title="parent_scope">
<ellipse fill="none" stroke="black" cx="1337.25" cy="-643.09" rx="72.29" ry="18"/>
<text text-anchor="middle" x="1337.25" y="-639.39" font-family="Times,serif" font-size="14.00">parent_scope</text>
</a>
</g>
</g>
<!-- find_labels&#45;&gt;parent_scope -->
<g id="edge7" class="edge">
<title>find_labels&#45;&gt;parent_scope</title>
<path fill="none" stroke="black" d="M1104.02,-740.28C1104.02,-708.52 1104.02,-644 1104.02,-644 1104.02,-644 1255.05,-644 1255.05,-644"/>
<polygon fill="black" stroke="black" points="1255.05,-647.5 1265.05,-644 1255.05,-640.5 1255.05,-647.5"/>
</g>
<!-- compute_size -->
<g id="node10" class="node">
<title>compute_size</title>
<g id="a_node10"><a xlink:href="../src/compute_size.c" xlink:title="compute_size">
<ellipse fill="none" stroke="black" cx="1311.94" cy="-1033.71" rx="73.39" ry="18"/>
<text text-anchor="middle" x="1311.94" y="-1030.01" font-family="Times,serif" font-size="14.00">compute_size</text>
</a>
</g>
</g>
<!-- convert_literal -->
<g id="node11" class="node">
<title>convert_literal</title>
<g id="a_node11"><a xlink:href="../src/conv_string.c" xlink:title="convert_literal">
<ellipse fill="none" stroke="black" cx="944.68" cy="-1117.37" rx="77.99" ry="18"/>
<text text-anchor="middle" x="944.68" y="-1113.67" font-family="Times,serif" font-size="14.00">convert_literal</text>
</a>
</g>
</g>
<!-- compute_size&#45;&gt;convert_literal -->
<g id="edge8" class="edge">
<title>compute_size&#45;&gt;convert_literal</title>
<path fill="none" stroke="black" d="M1258.16,-1046C1170.67,-1046 1007.2,-1046 1007.2,-1046 1007.2,-1046 1007.2,-1096.53 1007.2,-1096.53"/>
<polygon fill="black" stroke="black" points="1003.7,-1096.53 1007.2,-1106.53 1010.7,-1096.53 1003.7,-1096.53"/>
</g>
<!-- compute_addresses -->
<g id="node12" class="node">
<title>compute_addresses</title>
<g id="a_node12"><a xlink:href="../src/compute_addresses.c" xlink:title="compute_addresses">
<ellipse fill="none" stroke="black" cx="786.3" cy="-701.99" rx="102.08" ry="18"/>
<text text-anchor="middle" x="786.3" y="-698.29" font-family="Times,serif" font-size="14.00">compute_addresses</text>
</a>
</g>
</g>
<!-- compute_addresses&#45;&gt;convert_str_num -->
<g id="edge9" class="edge">
<title>compute_addresses&#45;&gt;convert_str_num</title>
<path fill="none" stroke="black" d="M851.63,-716.1C851.63,-716.1 851.63,-1048.44 851.63,-1048.44"/>
<polygon fill="black" stroke="black" points="848.13,-1048.44 851.63,-1058.44 855.13,-1048.44 848.13,-1048.44"/>
</g>
<!-- align_backward -->
<g id="node13" class="node">
<title>align_backward</title>
<g id="a_node13"><a xlink:href="../src/align.c" xlink:title="align_backward">
<ellipse fill="none" stroke="black" cx="458.62" cy="-1515.07" rx="83.39" ry="18"/>
<text text-anchor="middle" x="458.62" y="-1511.37" font-family="Times,serif" font-size="14.00">align_backward</text>
</a>
</g>
</g>
<!-- compute_addresses&#45;&gt;align_backward -->
<g id="edge10" class="edge">
<title>compute_addresses&#45;&gt;align_backward</title>
<path fill="none" stroke="black" d="M699.08,-711.4C699.08,-801.93 699.08,-1515 699.08,-1515 699.08,-1515 552.05,-1515 552.05,-1515"/>
<polygon fill="black" stroke="black" points="552.05,-1511.5 542.05,-1515 552.05,-1518.5 552.05,-1511.5"/>
</g>
<!-- align -->
<g id="node14" class="node">
<title>align</title>
<g id="a_node14"><a xlink:href="../src/align.c" xlink:title="align">
<ellipse fill="none" stroke="black" cx="494.07" cy="-1219.25" rx="33.6" ry="18"/>
<text text-anchor="middle" x="494.07" y="-1215.55" font-family="Times,serif" font-size="14.00">align</text>
</a>
</g>
</g>
<!-- compute_addresses&#45;&gt;align -->
<g id="edge11" class="edge">
<title>compute_addresses&#45;&gt;align</title>
<path fill="none" stroke="black" d="M691.67,-708.91C691.67,-770.26 691.67,-1219 691.67,-1219 691.67,-1219 538.04,-1219 538.04,-1219"/>
<polygon fill="black" stroke="black" points="538.04,-1215.5 528.04,-1219 538.04,-1222.5 538.04,-1215.5"/>
</g>
<!-- is_a_power_of_two -->
<g id="node15" class="node">
<title>is_a_power_of_two</title>
<g id="a_node15"><a xlink:href="../src/align.c" xlink:title="is_a_power_of_two">
<ellipse fill="none" stroke="black" cx="617.72" cy="-1559.07" rx="96.38" ry="18"/>
<text text-anchor="middle" x="617.72" y="-1555.37" font-family="Times,serif" font-size="14.00">is_a_power_of_two</text>
</a>
</g>
</g>
<!-- compute_addresses&#45;&gt;is_a_power_of_two -->
<g id="edge12" class="edge">
<title>compute_addresses&#45;&gt;is_a_power_of_two</title>
<path fill="none" stroke="black" d="M706.5,-713.46C706.5,-713.46 706.5,-1541.69 706.5,-1541.69"/>
<polygon fill="black" stroke="black" points="703,-1541.69 706.5,-1551.69 710,-1541.69 703,-1541.69"/>
</g>
<!-- check_overlapping_areas -->
<g id="node16" class="node">
<title>check_overlapping_areas</title>
<g id="a_node16"><a xlink:href="../src/check_overlapping_areas.c" xlink:title="check_overlapping_areas">
<ellipse fill="none" stroke="black" cx="1294.71" cy="-1257.42" rx="126.18" ry="18"/>
<text text-anchor="middle" x="1294.71" y="-1253.72" font-family="Times,serif" font-size="14.00">check_overlapping_areas</text>
</a>
</g>
</g>
<!-- compare_first_address_of_area -->
<g id="node17" class="node">
<title>compare_first_address_of_area</title>
<g id="a_node17"><a xlink:href="../src/check_overlapping_areas.c" xlink:title="compare_first_address_of_area">
<ellipse fill="none" stroke="black" cx="1508.48" cy="-1354.28" rx="153.27" ry="18"/>
<text text-anchor="middle" x="1508.48" y="-1350.58" font-family="Times,serif" font-size="14.00">compare_first_address_of_area</text>
</a>
</g>
</g>
<!-- check_overlapping_areas&#45;&gt;compare_first_address_of_area -->
<g id="edge13" class="edge">
<title>check_overlapping_areas&#45;&gt;compare_first_address_of_area</title>
<path fill="none" stroke="black" d="M1387.95,-1269.69C1387.95,-1269.69 1387.95,-1333.01 1387.95,-1333.01"/>
<polygon fill="black" stroke="black" points="1384.45,-1333.01 1387.95,-1343.01 1391.45,-1333.01 1384.45,-1333.01"/>
</g>
<!-- count_def -->
<g id="node18" class="node">
<title>count_def</title>
<g id="a_node18"><a xlink:href="../src/def_statement.c" xlink:title="count_def">
<ellipse fill="none" stroke="black" cx="794.71" cy="-537.42" rx="55.79" ry="18"/>
<text text-anchor="middle" x="794.71" y="-533.72" font-family="Times,serif" font-size="14.00">count_def</text>
</a>
</g>
</g>
<!-- find_mnemo -->
<g id="node19" class="node">
<title>find_mnemo</title>
<g id="a_node19"><a xlink:href="../src/find_mnemo.c" xlink:title="find_mnemo">
<ellipse fill="none" stroke="black" cx="1091.71" cy="-537.42" rx="66.89" ry="18"/>
<text text-anchor="middle" x="1091.71" y="-533.72" font-family="Times,serif" font-size="14.00">find_mnemo</text>
</a>
</g>
</g>
<!-- parse_line -->
<g id="node20" class="node">
<title>parse_line</title>
<g id="a_node20"><a xlink:href="../src/parse_line.c" xlink:title="parse_line">
<ellipse fill="none" stroke="black" cx="506.71" cy="-465.42" rx="57.69" ry="18"/>
<text text-anchor="middle" x="506.71" y="-461.72" font-family="Times,serif" font-size="14.00">parse_line</text>
</a>
</g>
</g>
<!-- scope_of_lines -->
<g id="node36" class="node">
<title>scope_of_lines</title>
<g id="a_node36"><a xlink:href="../src/scopes.c" xlink:title="scope_of_lines">
<ellipse fill="none" stroke="black" cx="1491.32" cy="-698.56" rx="76.89" ry="18"/>
<text text-anchor="middle" x="1491.32" y="-694.86" font-family="Times,serif" font-size="14.00">scope_of_lines</text>
</a>
</g>
</g>
<!-- scope_of_line -->
<g id="node37" class="node">
<title>scope_of_line</title>
<g id="a_node37"><a xlink:href="../src/scopes.c" xlink:title="scope_of_line">
<ellipse fill="none" stroke="black" cx="1426.32" cy="-538.56" rx="71.49" ry="18"/>
<text text-anchor="middle" x="1426.32" y="-534.86" font-family="Times,serif" font-size="14.00">scope_of_line</text>
</a>
</g>
</g>
<!-- scope_of_lines&#45;&gt;scope_of_line -->
<g id="edge29" class="edge">
<title>scope_of_lines&#45;&gt;scope_of_line</title>
<path fill="none" stroke="black" d="M1471.58,-681.13C1471.58,-681.13 1471.58,-562.7 1471.58,-562.7"/>
<polygon fill="black" stroke="black" points="1475.08,-562.7 1471.58,-552.7 1468.08,-562.7 1475.08,-562.7"/>
</g>
<!-- find_scopes -->
<g id="node38" class="node">
<title>find_scopes</title>
<g id="a_node38"><a xlink:href="../src/scopes.c" xlink:title="find_scopes">
<ellipse fill="none" stroke="black" cx="1328.32" cy="-728.56" rx="63.89" ry="18"/>
<text text-anchor="middle" x="1328.32" y="-724.86" font-family="Times,serif" font-size="14.00">find_scopes</text>
</a>
</g>
</g>
<!-- symcat -->
<g id="node39" class="node">
<title>symcat</title>
<g id="a_node39"><a xlink:href="../src/sym.c" xlink:title="symcat">
<ellipse fill="none" stroke="black" cx="259.83" cy="-351.53" rx="44.39" ry="18"/>
<text text-anchor="middle" x="259.83" y="-347.83" font-family="Times,serif" font-size="14.00">symcat</text>
</a>
</g>
</g>
<!-- symcat&#45;&gt;symlen -->
<g id="edge30" class="edge">
<title>symcat&#45;&gt;symlen</title>
<path fill="none" stroke="black" d="M287.9,-365.57C287.9,-365.57 287.9,-421.52 287.9,-421.52"/>
<polygon fill="black" stroke="black" points="284.4,-421.52 287.9,-431.52 291.4,-421.52 284.4,-421.52"/>
</g>
</g>
</svg>
