<?xml version="1.0" encoding="UTF-8" standalone="no"?>
<!DOCTYPE svg PUBLIC "-//W3C//DTD SVG 1.1//EN"
 "http://www.w3.org/Graphics/SVG/1.1/DTD/svg11.dtd">
<!-- Generated by graphviz version 2.50.0 (0)
 -->
<!-- Title: G Pages: 1 -->
<svg width="1604pt" height="1282pt"
 viewBox="0.00 0.00 1604.00 1282.00" xmlns="http://www.w3.org/2000/svg" xmlns:xlink="http://www.w3.org/1999/xlink">
<g id="graph0" class="graph" transform="scale(1 1) rotate(0) translate(4 1255)">
<title>G</title>
<polygon fill="white" stroke="transparent" points="-4,27 -4,-1255 1600,-1255 1600,27 -4,27"/>
<text text-anchor="middle" x="798" y="15.2" font-family="Times,serif" font-size="14.00">Call graph</text>
<g id="clust7" class="cluster">
<title>cluster_align_c</title>
<polygon fill="lightgrey" stroke="lightgrey" points="816.41,-755.08 816.41,-937.08 1178.41,-937.08 1178.41,-755.08 816.41,-755.08"/>
<text text-anchor="middle" x="997.41" y="-921.88" font-family="Times,serif" font-size="14.00">align.c</text>
</g>
<g id="clust8" class="cluster">
<title>cluster_align_h</title>
<polygon fill="none" stroke="blue" points="824.08,-763.2 824.08,-906.2 1170.08,-906.2 1170.08,-763.2 824.08,-763.2"/>
<text text-anchor="middle" x="997.08" y="-891" font-family="Times,serif" font-size="14.00">align.h</text>
</g>
<g id="clust9" class="cluster">
<title>cluster_check_overlapping_areas</title>
<polygon fill="lightgrey" stroke="lightgrey" points="765.24,0.36 765.24,-179.64 1283.24,-179.64 1283.24,0.36 765.24,0.36"/>
<text text-anchor="middle" x="1024.24" y="-164.44" font-family="Times,serif" font-size="14.00">check_overlapping_areas.c</text>
</g>
<g id="clust10" class="cluster">
<title>cluster_check_overlapping_areas_h</title>
<polygon fill="none" stroke="blue" points="773.48,-7.78 773.48,-82.78 1041.48,-82.78 1041.48,-7.78 773.48,-7.78"/>
<text text-anchor="middle" x="907.48" y="-67.58" font-family="Times,serif" font-size="14.00">check_overlapping_areas.h</text>
</g>
<g id="clust11" class="cluster">
<title>cluster_compute_addresses_c</title>
<polygon fill="lightgrey" stroke="lightgrey" points="1359.51,-992.32 1359.51,-1106.32 1595.51,-1106.32 1595.51,-992.32 1359.51,-992.32"/>
<text text-anchor="middle" x="1477.51" y="-1091.12" font-family="Times,serif" font-size="14.00">compute_addresses.c</text>
</g>
<g id="clust12" class="cluster">
<title>cluster_compute_addresses_h</title>
<polygon fill="none" stroke="blue" points="1367.39,-1000.09 1367.39,-1075.09 1587.39,-1075.09 1587.39,-1000.09 1367.39,-1000.09"/>
<text text-anchor="middle" x="1477.39" y="-1059.89" font-family="Times,serif" font-size="14.00">compute_addresses.h</text>
</g>
<g id="clust13" class="cluster">
<title>cluster_compute_size_c</title>
<polygon fill="lightgrey" stroke="lightgrey" points="1310.23,-612.28 1310.23,-726.28 1488.23,-726.28 1488.23,-612.28 1310.23,-612.28"/>
<text text-anchor="middle" x="1399.23" y="-711.08" font-family="Times,serif" font-size="14.00">compute_size.c</text>
</g>
<g id="clust14" class="cluster">
<title>cluster_compute_size_h</title>
<polygon fill="none" stroke="blue" points="1317.82,-620.41 1317.82,-695.41 1479.82,-695.41 1479.82,-620.41 1317.82,-620.41"/>
<text text-anchor="middle" x="1398.82" y="-680.21" font-family="Times,serif" font-size="14.00">compute_size.h</text>
</g>
<g id="clust15" class="cluster">
<title>cluster_conv_string_c</title>
<polygon fill="lightgrey" stroke="lightgrey" points="1093.49,-1088.17 1093.49,-1246.17 1351.49,-1246.17 1351.49,-1088.17 1093.49,-1088.17"/>
<text text-anchor="middle" x="1222.49" y="-1230.97" font-family="Times,serif" font-size="14.00">conv_string.c</text>
</g>
<g id="clust16" class="cluster">
<title>cluster_conv_string_h</title>
<polygon fill="none" stroke="blue" points="1101.08,-1096.48 1101.08,-1215.48 1343.08,-1215.48 1343.08,-1096.48 1101.08,-1096.48"/>
<text text-anchor="middle" x="1222.08" y="-1200.28" font-family="Times,serif" font-size="14.00">conv_string.h</text>
</g>
<g id="clust17" class="cluster">
<title>cluster_def_statement_c</title>
<polygon fill="lightgrey" stroke="lightgrey" points="510.24,-560.64 510.24,-674.64 658.24,-674.64 658.24,-560.64 510.24,-560.64"/>
<text text-anchor="middle" x="584.24" y="-659.44" font-family="Times,serif" font-size="14.00">def_statement.c</text>
</g>
<g id="clust18" class="cluster">
<title>cluster_def_statement_h</title>
<polygon fill="none" stroke="blue" points="518.48,-568.78 518.48,-643.78 650.48,-643.78 650.48,-568.78 518.48,-568.78"/>
<text text-anchor="middle" x="584.48" y="-628.58" font-family="Times,serif" font-size="14.00">def_statement.h</text>
</g>
<g id="clust19" class="cluster">
<title>cluster_find_mnemo_c</title>
<polygon fill="lightgrey" stroke="lightgrey" points="255.24,-713.64 255.24,-827.64 421.24,-827.64 421.24,-713.64 255.24,-713.64"/>
<text text-anchor="middle" x="338.24" y="-812.44" font-family="Times,serif" font-size="14.00">find_mnemo.c</text>
</g>
<g id="clust20" class="cluster">
<title>cluster_find_mnemo_h</title>
<polygon fill="none" stroke="blue" points="263.48,-721.78 263.48,-796.78 413.48,-796.78 413.48,-721.78 263.48,-721.78"/>
<text text-anchor="middle" x="338.48" y="-781.58" font-family="Times,serif" font-size="14.00">find_mnemo.h</text>
</g>
<g id="clust21" class="cluster">
<title>cluster_find_labels_c</title>
<polygon fill="lightgrey" stroke="lightgrey" points="152.86,-1137.02 152.86,-1251.02 304.86,-1251.02 304.86,-1137.02 152.86,-1137.02"/>
<text text-anchor="middle" x="228.86" y="-1235.82" font-family="Times,serif" font-size="14.00">find_labels.c</text>
</g>
<g id="clust22" class="cluster">
<title>cluster_find_labels_h</title>
<polygon fill="none" stroke="blue" points="161.09,-1145.36 161.09,-1220.36 297.09,-1220.36 297.09,-1145.36 161.09,-1145.36"/>
<text text-anchor="middle" x="229.09" y="-1205.16" font-family="Times,serif" font-size="14.00">find_labels.h</text>
</g>
<g id="clust23" class="cluster">
<title>cluster_import_symbols_c</title>
<polygon fill="lightgrey" stroke="lightgrey" points="737.03,-1121.42 737.03,-1235.42 938.03,-1235.42 938.03,-1121.42 737.03,-1121.42"/>
<text text-anchor="middle" x="837.53" y="-1220.22" font-family="Times,serif" font-size="14.00">import_symbols.c</text>
</g>
<g id="clust24" class="cluster">
<title>cluster_import_symbols_h</title>
<polygon fill="none" stroke="blue" points="745.46,-1129.78 745.46,-1204.78 930.46,-1204.78 930.46,-1129.78 745.46,-1129.78"/>
<text text-anchor="middle" x="837.96" y="-1189.58" font-family="Times,serif" font-size="14.00">import_symbols.h</text>
</g>
<g id="clust25" class="cluster">
<title>cluster_parse_line_c</title>
<polygon fill="lightgrey" stroke="lightgrey" points="306.24,-203.64 306.24,-317.64 454.24,-317.64 454.24,-203.64 306.24,-203.64"/>
<text text-anchor="middle" x="380.24" y="-302.44" font-family="Times,serif" font-size="14.00">parse_line.c</text>
</g>
<g id="clust26" class="cluster">
<title>cluster_parse_line_h</title>
<polygon fill="none" stroke="blue" points="314.48,-211.78 314.48,-286.78 446.48,-286.78 446.48,-211.78 314.48,-211.78"/>
<text text-anchor="middle" x="380.48" y="-271.58" font-family="Times,serif" font-size="14.00">parse_line.h</text>
</g>
<g id="clust27" class="cluster">
<title>cluster_pointer_c</title>
<polygon fill="lightgrey" stroke="lightgrey" points="0.13,-416.24 0.13,-540.24 293.13,-540.24 293.13,-416.24 0.13,-416.24"/>
<text text-anchor="middle" x="146.63" y="-525.04" font-family="Times,serif" font-size="14.00">pointer.c</text>
</g>
<g id="clust28" class="cluster">
<title>cluster_pointer_h</title>
<polygon fill="none" stroke="blue" points="7.86,-424.57 7.86,-509.57 284.86,-509.57 284.86,-424.57 7.86,-424.57"/>
<text text-anchor="middle" x="146.36" y="-494.37" font-family="Times,serif" font-size="14.00">pointer.h</text>
</g>
<g id="clust29" class="cluster">
<title>cluster_rpn_c</title>
<polygon fill="lightgrey" stroke="lightgrey" points="714.54,-208.42 714.54,-705.42 1241.54,-705.42 1241.54,-208.42 714.54,-208.42"/>
<text text-anchor="middle" x="978.04" y="-690.22" font-family="Times,serif" font-size="14.00">rpn.c</text>
</g>
<g id="clust31" class="cluster">
<title>cluster_rpn_h</title>
<polygon fill="none" stroke="blue" points="925.91,-406.97 925.91,-481.97 1033.91,-481.97 1033.91,-406.97 925.91,-406.97"/>
<text text-anchor="middle" x="979.91" y="-466.77" font-family="Times,serif" font-size="14.00">rpn.h</text>
</g>
<g id="clust32" class="cluster">
<title>cluster_scopes_c</title>
<polygon fill="lightgrey" stroke="lightgrey" points="394,-918.5 394,-1222.5 729,-1222.5 729,-918.5 394,-918.5"/>
<text text-anchor="middle" x="561.5" y="-1207.3" font-family="Times,serif" font-size="14.00">scopes.c</text>
</g>
<g id="clust33" class="cluster">
<title>cluster_scopes_h</title>
<polygon fill="none" stroke="blue" points="402.08,-926.92 402.08,-1191.92 721.08,-1191.92 721.08,-926.92 402.08,-926.92"/>
<text text-anchor="middle" x="561.58" y="-1176.72" font-family="Times,serif" font-size="14.00">scopes.h</text>
</g>
<g id="clust34" class="cluster">
<title>cluster_sym_c</title>
<polygon fill="lightgrey" stroke="lightgrey" points="495.5,-203.51 495.5,-415.51 706.5,-415.51 706.5,-203.51 495.5,-203.51"/>
<text text-anchor="middle" x="601" y="-400.31" font-family="Times,serif" font-size="14.00">sym.c</text>
</g>
<g id="clust35" class="cluster">
<title>cluster_sym_h</title>
<polygon fill="none" stroke="blue" points="503.58,-211.93 503.58,-384.93 698.58,-384.93 698.58,-211.93 503.58,-211.93"/>
<text text-anchor="middle" x="601.08" y="-369.73" font-family="Times,serif" font-size="14.00">sym.h</text>
</g>
<!-- symtonum -->
<g id="node1" class="node">
<title>symtonum</title>
<g id="a_node1"><a xlink:href="../src/sym.c" xlink:title="symtonum">
<ellipse fill="none" stroke="black" cx="571.16" cy="-286.84" rx="59.59" ry="18"/>
<text text-anchor="middle" x="571.16" y="-283.14" font-family="Times,serif" font-size="14.00">symtonum</text>
</a>
</g>
</g>
<!-- pointerlen -->
<g id="node2" class="node">
<title>pointerlen</title>
<g id="a_node2"><a xlink:href="../src/pointer.c" xlink:title="pointerlen">
<ellipse fill="none" stroke="black" cx="74.81" cy="-460.55" rx="58.49" ry="18"/>
<text text-anchor="middle" x="74.81" y="-456.85" font-family="Times,serif" font-size="14.00">pointerlen</text>
</a>
</g>
</g>
<!-- symtonum&#45;&gt;pointerlen -->
<g id="edge1" class="edge">
<title>symtonum&#45;&gt;pointerlen</title>
<path fill="none" stroke="black" d="M523,-297.66C523,-337.39 523,-473 523,-473 523,-473 127.38,-473 127.38,-473"/>
<polygon fill="black" stroke="black" points="127.38,-469.5 117.38,-473 127.38,-476.5 127.38,-469.5"/>
</g>
<!-- mempointer -->
<g id="node3" class="node">
<title>mempointer</title>
<g id="a_node3"><a xlink:href="../src/pointer.c" xlink:title="mempointer">
<ellipse fill="none" stroke="black" cx="208.91" cy="-450.59" rx="67.69" ry="18"/>
<text text-anchor="middle" x="208.91" y="-446.89" font-family="Times,serif" font-size="14.00">mempointer</text>
</a>
</g>
</g>
<!-- symtonum&#45;&gt;mempointer -->
<g id="edge2" class="edge">
<title>symtonum&#45;&gt;mempointer</title>
<path fill="none" stroke="black" d="M517.18,-294.62C517.18,-326.81 517.18,-448 517.18,-448 517.18,-448 285.8,-448 285.8,-448"/>
<polygon fill="black" stroke="black" points="285.8,-444.5 275.8,-448 285.8,-451.5 285.8,-444.5"/>
</g>
<!-- symlen -->
<g id="node40" class="node">
<title>symlen</title>
<g id="a_node40"><a xlink:href="../src/sym.c" xlink:title="symlen">
<ellipse fill="none" stroke="black" cx="646.82" cy="-335.57" rx="44.39" ry="18"/>
<text text-anchor="middle" x="646.82" y="-331.87" font-family="Times,serif" font-size="14.00">symlen</text>
</a>
</g>
</g>
<!-- symtonum&#45;&gt;symlen -->
<g id="edge30" class="edge">
<title>symtonum&#45;&gt;symlen</title>
<path fill="none" stroke="black" d="M616.79,-298.64C616.79,-298.64 616.79,-312.16 616.79,-312.16"/>
<polygon fill="black" stroke="black" points="613.29,-312.16 616.79,-322.16 620.29,-312.16 613.29,-312.16"/>
</g>
<!-- rpneval -->
<g id="node4" class="node">
<title>rpneval</title>
<g id="a_node4"><a xlink:href="../src/rpn.c" xlink:title="rpneval">
<ellipse fill="none" stroke="black" cx="980.12" cy="-432.7" rx="46.29" ry="18"/>
<text text-anchor="middle" x="980.12" y="-429" font-family="Times,serif" font-size="14.00">rpneval</text>
</a>
</g>
</g>
<!-- rpneval&#45;&gt;symtonum -->
<g id="edge3" class="edge">
<title>rpneval&#45;&gt;symtonum</title>
<path fill="none" stroke="black" d="M942.98,-422C841.27,-422 565.72,-422 565.72,-422 565.72,-422 565.72,-314.79 565.72,-314.79"/>
<polygon fill="black" stroke="black" points="569.22,-314.79 565.72,-304.79 562.22,-314.79 569.22,-314.79"/>
</g>
<!-- rpnadd -->
<g id="node21" class="node">
<title>rpnadd</title>
<ellipse fill="none" stroke="black" cx="975.01" cy="-546.09" rx="44.39" ry="18"/>
<text text-anchor="middle" x="975.01" y="-542.39" font-family="Times,serif" font-size="14.00">rpnadd</text>
</g>
<!-- rpneval&#45;&gt;rpnadd -->
<g id="edge13" class="edge">
<title>rpneval&#45;&gt;rpnadd</title>
<path fill="none" stroke="black" d="M990.8,-450.42C990.8,-450.42 990.8,-519.24 990.8,-519.24"/>
<polygon fill="black" stroke="black" points="987.3,-519.24 990.8,-529.24 994.3,-519.24 987.3,-519.24"/>
</g>
<!-- rpnsub -->
<g id="node22" class="node">
<title>rpnsub</title>
<ellipse fill="none" stroke="black" cx="1132.68" cy="-288.65" rx="43.59" ry="18"/>
<text text-anchor="middle" x="1132.68" y="-284.95" font-family="Times,serif" font-size="14.00">rpnsub</text>
</g>
<!-- rpneval&#45;&gt;rpnsub -->
<g id="edge14" class="edge">
<title>rpneval&#45;&gt;rpnsub</title>
<path fill="none" stroke="black" d="M1019.85,-423.52C1019.85,-391.41 1019.85,-286 1019.85,-286 1019.85,-286 1079.38,-286 1079.38,-286"/>
<polygon fill="black" stroke="black" points="1079.38,-289.5 1089.38,-286 1079.38,-282.5 1079.38,-289.5"/>
</g>
<!-- rpnmul -->
<g id="node23" class="node">
<title>rpnmul</title>
<ellipse fill="none" stroke="black" cx="969.24" cy="-332.21" rx="44.39" ry="18"/>
<text text-anchor="middle" x="969.24" y="-328.51" font-family="Times,serif" font-size="14.00">rpnmul</text>
</g>
<!-- rpneval&#45;&gt;rpnmul -->
<g id="edge15" class="edge">
<title>rpneval&#45;&gt;rpnmul</title>
<path fill="none" stroke="black" d="M973.71,-414.74C973.71,-414.74 973.71,-360.36 973.71,-360.36"/>
<polygon fill="black" stroke="black" points="977.21,-360.36 973.71,-350.36 970.21,-360.36 977.21,-360.36"/>
</g>
<!-- rpndiv -->
<g id="node24" class="node">
<title>rpndiv</title>
<ellipse fill="none" stroke="black" cx="871.41" cy="-446.22" rx="40.89" ry="18"/>
<text text-anchor="middle" x="871.41" y="-442.52" font-family="Times,serif" font-size="14.00">rpndiv</text>
</g>
<!-- rpneval&#45;&gt;rpndiv -->
<g id="edge16" class="edge">
<title>rpneval&#45;&gt;rpndiv</title>
<path fill="none" stroke="black" d="M934.33,-435C934.33,-435 913.62,-435 913.62,-435"/>
<polygon fill="black" stroke="black" points="913.62,-431.5 903.62,-435 913.62,-438.5 913.62,-431.5"/>
</g>
<!-- rpnlsh -->
<g id="node25" class="node">
<title>rpnlsh</title>
<ellipse fill="none" stroke="black" cx="767.1" cy="-375.3" rx="40.09" ry="18"/>
<text text-anchor="middle" x="767.1" y="-371.6" font-family="Times,serif" font-size="14.00">rpnlsh</text>
</g>
<!-- rpneval&#45;&gt;rpnlsh -->
<g id="edge17" class="edge">
<title>rpneval&#45;&gt;rpnlsh</title>
<path fill="none" stroke="black" d="M947.04,-420C886.82,-420 765.42,-420 765.42,-420 765.42,-420 765.42,-403.48 765.42,-403.48"/>
<polygon fill="black" stroke="black" points="768.92,-403.48 765.42,-393.48 761.92,-403.48 768.92,-403.48"/>
</g>
<!-- rpnrsh -->
<g id="node26" class="node">
<title>rpnrsh</title>
<ellipse fill="none" stroke="black" cx="1187.04" cy="-378.6" rx="42.49" ry="18"/>
<text text-anchor="middle" x="1187.04" y="-374.9" font-family="Times,serif" font-size="14.00">rpnrsh</text>
</g>
<!-- rpneval&#45;&gt;rpnrsh -->
<g id="edge18" class="edge">
<title>rpneval&#45;&gt;rpnrsh</title>
<path fill="none" stroke="black" d="M1023.06,-425.75C1023.06,-410.61 1023.06,-376 1023.06,-376 1023.06,-376 1134.81,-376 1134.81,-376"/>
<polygon fill="black" stroke="black" points="1134.81,-379.5 1144.81,-376 1134.81,-372.5 1134.81,-379.5"/>
</g>
<!-- rpnmod -->
<g id="node27" class="node">
<title>rpnmod</title>
<ellipse fill="none" stroke="black" cx="1187.22" cy="-509.7" rx="46.59" ry="18"/>
<text text-anchor="middle" x="1187.22" y="-506" font-family="Times,serif" font-size="14.00">rpnmod</text>
</g>
<!-- rpneval&#45;&gt;rpnmod -->
<g id="edge19" class="edge">
<title>rpneval&#45;&gt;rpnmod</title>
<path fill="none" stroke="black" d="M1024.5,-437.83C1024.5,-454.18 1024.5,-504 1024.5,-504 1024.5,-504 1132.75,-504 1132.75,-504"/>
<polygon fill="black" stroke="black" points="1132.75,-507.5 1142.75,-504 1132.75,-500.5 1132.75,-507.5"/>
</g>
<!-- rpnand -->
<g id="node28" class="node">
<title>rpnand</title>
<ellipse fill="none" stroke="black" cx="1044.48" cy="-234.59" rx="44.39" ry="18"/>
<text text-anchor="middle" x="1044.48" y="-230.89" font-family="Times,serif" font-size="14.00">rpnand</text>
</g>
<!-- rpneval&#45;&gt;rpnand -->
<g id="edge20" class="edge">
<title>rpneval&#45;&gt;rpnand</title>
<path fill="none" stroke="black" d="M1016.64,-421.48C1016.64,-421.48 1016.64,-258.79 1016.64,-258.79"/>
<polygon fill="black" stroke="black" points="1020.14,-258.79 1016.64,-248.79 1013.14,-258.79 1020.14,-258.79"/>
</g>
<!-- rpnor -->
<g id="node29" class="node">
<title>rpnor</title>
<ellipse fill="none" stroke="black" cx="1036.11" cy="-656.78" rx="36.29" ry="18"/>
<text text-anchor="middle" x="1036.11" y="-653.08" font-family="Times,serif" font-size="14.00">rpnor</text>
</g>
<!-- rpneval&#45;&gt;rpnor -->
<g id="edge21" class="edge">
<title>rpneval&#45;&gt;rpnor</title>
<path fill="none" stroke="black" d="M1020.97,-441.21C1020.97,-441.21 1020.97,-630.4 1020.97,-630.4"/>
<polygon fill="black" stroke="black" points="1017.47,-630.4 1020.97,-640.4 1024.47,-630.4 1017.47,-630.4"/>
</g>
<!-- rpnxor -->
<g id="node30" class="node">
<title>rpnxor</title>
<ellipse fill="none" stroke="black" cx="824.29" cy="-284.84" rx="42.49" ry="18"/>
<text text-anchor="middle" x="824.29" y="-281.14" font-family="Times,serif" font-size="14.00">rpnxor</text>
</g>
<!-- rpneval&#45;&gt;rpnxor -->
<g id="edge22" class="edge">
<title>rpneval&#45;&gt;rpnxor</title>
<path fill="none" stroke="black" d="M957.5,-417C919.86,-417 848.5,-417 848.5,-417 848.5,-417 848.5,-309.75 848.5,-309.75"/>
<polygon fill="black" stroke="black" points="852,-309.75 848.5,-299.75 845,-309.75 852,-309.75"/>
</g>
<!-- rpninv -->
<g id="node31" class="node">
<title>rpninv</title>
<ellipse fill="none" stroke="black" cx="763.08" cy="-499.94" rx="40.89" ry="18"/>
<text text-anchor="middle" x="763.08" y="-496.24" font-family="Times,serif" font-size="14.00">rpninv</text>
</g>
<!-- rpneval&#45;&gt;rpninv -->
<g id="edge23" class="edge">
<title>rpneval&#45;&gt;rpninv</title>
<path fill="none" stroke="black" d="M962.39,-449.57C962.39,-465.18 962.39,-486 962.39,-486 962.39,-486 799.14,-486 799.14,-486"/>
<polygon fill="black" stroke="black" points="799.14,-482.5 789.14,-486 799.14,-489.5 799.14,-482.5"/>
</g>
<!-- rpnneg -->
<g id="node32" class="node">
<title>rpnneg</title>
<ellipse fill="none" stroke="black" cx="1086.12" cy="-445.75" rx="44.39" ry="18"/>
<text text-anchor="middle" x="1086.12" y="-442.05" font-family="Times,serif" font-size="14.00">rpnneg</text>
</g>
<!-- rpneval&#45;&gt;rpnneg -->
<g id="edge24" class="edge">
<title>rpneval&#45;&gt;rpnneg</title>
<path fill="none" stroke="black" d="M1023.54,-439C1023.54,-439 1034.99,-439 1034.99,-439"/>
<polygon fill="black" stroke="black" points="1034.99,-442.5 1044.99,-439 1034.99,-435.5 1034.99,-442.5"/>
</g>
<!-- rpndivsign -->
<g id="node33" class="node">
<title>rpndivsign</title>
<ellipse fill="none" stroke="black" cx="1131" cy="-601.86" rx="60.39" ry="18"/>
<text text-anchor="middle" x="1131" y="-598.16" font-family="Times,serif" font-size="14.00">rpndivsign</text>
</g>
<!-- rpneval&#45;&gt;rpndivsign -->
<g id="edge25" class="edge">
<title>rpneval&#45;&gt;rpndivsign</title>
<path fill="none" stroke="black" d="M1022.74,-439.8C1022.74,-471.44 1022.74,-598 1022.74,-598 1022.74,-598 1061.8,-598 1061.8,-598"/>
<polygon fill="black" stroke="black" points="1061.8,-601.5 1071.8,-598 1061.8,-594.5 1061.8,-601.5"/>
</g>
<!-- rpnrshsign -->
<g id="node34" class="node">
<title>rpnrshsign</title>
<ellipse fill="none" stroke="black" cx="908.25" cy="-654.14" rx="61.99" ry="18"/>
<text text-anchor="middle" x="908.25" y="-650.44" font-family="Times,serif" font-size="14.00">rpnrshsign</text>
</g>
<!-- rpneval&#45;&gt;rpnrshsign -->
<g id="edge26" class="edge">
<title>rpneval&#45;&gt;rpnrshsign</title>
<path fill="none" stroke="black" d="M942.27,-443C929.63,-443 918.7,-443 918.7,-443 918.7,-443 918.7,-626.14 918.7,-626.14"/>
<polygon fill="black" stroke="black" points="915.2,-626.14 918.7,-636.14 922.2,-626.14 915.2,-626.14"/>
</g>
<!-- rpnmodsign -->
<g id="node35" class="node">
<title>rpnmodsign</title>
<ellipse fill="none" stroke="black" cx="815.47" cy="-595.09" rx="66.09" ry="18"/>
<text text-anchor="middle" x="815.47" y="-591.39" font-family="Times,serif" font-size="14.00">rpnmodsign</text>
</g>
<!-- rpneval&#45;&gt;rpnmodsign -->
<g id="edge27" class="edge">
<title>rpneval&#45;&gt;rpnmodsign</title>
<path fill="none" stroke="black" d="M938.19,-425C890.43,-425 818.93,-425 818.93,-425 818.93,-425 818.93,-566.89 818.93,-566.89"/>
<polygon fill="black" stroke="black" points="815.43,-566.89 818.93,-576.89 822.43,-566.89 815.43,-566.89"/>
</g>
<!-- import_symbols -->
<g id="node5" class="node">
<title>import_symbols</title>
<g id="a_node5"><a xlink:href="../src/import_symbols.c" xlink:title="import_symbols">
<ellipse fill="none" stroke="black" cx="837.66" cy="-1155.81" rx="84.49" ry="18"/>
<text text-anchor="middle" x="837.66" y="-1152.11" font-family="Times,serif" font-size="14.00">import_symbols</text>
</a>
</g>
</g>
<!-- root_scope -->
<g id="node6" class="node">
<title>root_scope</title>
<g id="a_node6"><a xlink:href="../src/scopes.c" xlink:title="root_scope">
<ellipse fill="none" stroke="black" cx="529.91" cy="-1013.08" rx="60.39" ry="18"/>
<text text-anchor="middle" x="529.91" y="-1009.38" font-family="Times,serif" font-size="14.00">root_scope</text>
</a>
</g>
</g>
<!-- import_symbols&#45;&gt;root_scope -->
<g id="edge4" class="edge">
<title>import_symbols&#45;&gt;root_scope</title>
<path fill="none" stroke="black" d="M792.39,-1140.42C792.39,-1103.32 792.39,-1012 792.39,-1012 792.39,-1012 600.46,-1012 600.46,-1012"/>
<polygon fill="black" stroke="black" points="600.46,-1008.5 590.46,-1012 600.46,-1015.5 600.46,-1008.5"/>
</g>
<!-- find_labels -->
<g id="node7" class="node">
<title>find_labels</title>
<g id="a_node7"><a xlink:href="../src/find_labels.c" xlink:title="find_labels">
<ellipse fill="none" stroke="black" cx="228.86" cy="-1171.52" rx="59.59" ry="18"/>
<text text-anchor="middle" x="228.86" y="-1167.82" font-family="Times,serif" font-size="14.00">find_labels</text>
</a>
</g>
</g>
<!-- find_labels&#45;&gt;root_scope -->
<g id="edge5" class="edge">
<title>find_labels&#45;&gt;root_scope</title>
<path fill="none" stroke="black" d="M277.4,-1160.88C277.4,-1125.33 277.4,-1013 277.4,-1013 277.4,-1013 459.43,-1013 459.43,-1013"/>
<polygon fill="black" stroke="black" points="459.43,-1016.5 469.43,-1013 459.43,-1009.5 459.43,-1016.5"/>
</g>
<!-- parent_scope -->
<g id="node8" class="node">
<title>parent_scope</title>
<g id="a_node8"><a xlink:href="../src/scopes.c" xlink:title="parent_scope">
<ellipse fill="none" stroke="black" cx="482.25" cy="-1057.09" rx="72.29" ry="18"/>
<text text-anchor="middle" x="482.25" y="-1053.39" font-family="Times,serif" font-size="14.00">parent_scope</text>
</a>
</g>
</g>
<!-- find_labels&#45;&gt;parent_scope -->
<g id="edge6" class="edge">
<title>find_labels&#45;&gt;parent_scope</title>
<path fill="none" stroke="black" d="M283.02,-1163.65C283.02,-1137.78 283.02,-1057 283.02,-1057 283.02,-1057 400.04,-1057 400.04,-1057"/>
<polygon fill="black" stroke="black" points="400.04,-1060.5 410.04,-1057 400.04,-1053.5 400.04,-1060.5"/>
</g>
<!-- compute_size -->
<g id="node9" class="node">
<title>compute_size</title>
<g id="a_node9"><a xlink:href="../src/compute_size.c" xlink:title="compute_size">
<ellipse fill="none" stroke="black" cx="1398.85" cy="-646.27" rx="73.39" ry="18"/>
<text text-anchor="middle" x="1398.85" y="-642.57" font-family="Times,serif" font-size="14.00">compute_size</text>
</a>
</g>
</g>
<!-- convert_literal -->
<g id="node10" class="node">
<title>convert_literal</title>
<g id="a_node10"><a xlink:href="../src/conv_string.c" xlink:title="convert_literal">
<ellipse fill="none" stroke="black" cx="1187.42" cy="-1122.26" rx="77.99" ry="18"/>
<text text-anchor="middle" x="1187.42" y="-1118.56" font-family="Times,serif" font-size="14.00">convert_literal</text>
</a>
</g>
</g>
<!-- compute_size&#45;&gt;convert_literal -->
<g id="edge7" class="edge">
<title>compute_size&#45;&gt;convert_literal</title>
<path fill="none" stroke="black" d="M1328.6,-651.61C1328.6,-703.88 1328.6,-1122 1328.6,-1122 1328.6,-1122 1275.44,-1122 1275.44,-1122"/>
<polygon fill="black" stroke="black" points="1275.44,-1118.5 1265.44,-1122 1275.44,-1125.5 1275.44,-1118.5"/>
</g>
<!-- compute_addresses -->
<g id="node11" class="node">
<title>compute_addresses</title>
<g id="a_node11"><a xlink:href="../src/compute_addresses.c" xlink:title="compute_addresses">
<ellipse fill="none" stroke="black" cx="1477.27" cy="-1026.37" rx="102.08" ry="18"/>
<text text-anchor="middle" x="1477.27" y="-1022.67" font-family="Times,serif" font-size="14.00">compute_addresses</text>
</a>
</g>
</g>
<!-- convert_str_num -->
<g id="node12" class="node">
<title>convert_str_num</title>
<g id="a_node12"><a xlink:href="../src/conv_string.c" xlink:title="convert_str_num">
<ellipse fill="none" stroke="black" cx="1246.6" cy="-1166.27" rx="88.28" ry="18"/>
<text text-anchor="middle" x="1246.6" y="-1162.57" font-family="Times,serif" font-size="14.00">convert_str_num</text>
</a>
</g>
</g>
<!-- compute_addresses&#45;&gt;convert_str_num -->
<g id="edge8" class="edge">
<title>compute_addresses&#45;&gt;convert_str_num</title>
<path fill="none" stroke="black" d="M1387.62,-1035C1357.69,-1035 1331.8,-1035 1331.8,-1035 1331.8,-1035 1331.8,-1151.28 1331.8,-1151.28"/>
<polygon fill="black" stroke="black" points="1328.3,-1151.28 1331.8,-1161.28 1335.3,-1151.28 1328.3,-1151.28"/>
</g>
<!-- align_backward -->
<g id="node13" class="node">
<title>align_backward</title>
<g id="a_node13"><a xlink:href="../src/align.c" xlink:title="align_backward">
<ellipse fill="none" stroke="black" cx="1078.41" cy="-788.97" rx="83.39" ry="18"/>
<text text-anchor="middle" x="1078.41" y="-785.27" font-family="Times,serif" font-size="14.00">align_backward</text>
</a>
</g>
</g>
<!-- compute_addresses&#45;&gt;align_backward -->
<g id="edge9" class="edge">
<title>compute_addresses&#45;&gt;align_backward</title>
<path fill="none" stroke="black" d="M1389.82,-1017C1294.12,-1017 1154.12,-1017 1154.12,-1017 1154.12,-1017 1154.12,-806.56 1154.12,-806.56"/>
<polygon fill="black" stroke="black" points="1157.62,-806.56 1154.12,-796.56 1150.62,-806.56 1157.62,-806.56"/>
</g>
<!-- align -->
<g id="node14" class="node">
<title>align</title>
<g id="a_node14"><a xlink:href="../src/align.c" xlink:title="align">
<ellipse fill="none" stroke="black" cx="1112.83" cy="-857.29" rx="33.6" ry="18"/>
<text text-anchor="middle" x="1112.83" y="-853.59" font-family="Times,serif" font-size="14.00">align</text>
</a>
</g>
</g>
<!-- compute_addresses&#45;&gt;align -->
<g id="edge10" class="edge">
<title>compute_addresses&#45;&gt;align</title>
<path fill="none" stroke="black" d="M1379.52,-1021C1276.2,-1021 1128.03,-1021 1128.03,-1021 1128.03,-1021 1128.03,-883.59 1128.03,-883.59"/>
<polygon fill="black" stroke="black" points="1131.53,-883.59 1128.03,-873.59 1124.53,-883.59 1131.53,-883.59"/>
</g>
<!-- is_a_power_of_two -->
<g id="node15" class="node">
<title>is_a_power_of_two</title>
<g id="a_node15"><a xlink:href="../src/align.c" xlink:title="is_a_power_of_two">
<ellipse fill="none" stroke="black" cx="927.81" cy="-832.97" rx="96.38" ry="18"/>
<text text-anchor="middle" x="927.81" y="-829.27" font-family="Times,serif" font-size="14.00">is_a_power_of_two</text>
</a>
</g>
</g>
<!-- compute_addresses&#45;&gt;is_a_power_of_two -->
<g id="edge11" class="edge">
<title>compute_addresses&#45;&gt;is_a_power_of_two</title>
<path fill="none" stroke="black" d="M1375.24,-1026C1227.91,-1026 973.08,-1026 973.08,-1026 973.08,-1026 973.08,-859.1 973.08,-859.1"/>
<polygon fill="black" stroke="black" points="976.58,-859.1 973.08,-849.1 969.58,-859.1 976.58,-859.1"/>
</g>
<!-- check_overlapping_areas -->
<g id="node16" class="node">
<title>check_overlapping_areas</title>
<g id="a_node16"><a xlink:href="../src/check_overlapping_areas.c" xlink:title="check_overlapping_areas">
<ellipse fill="none" stroke="black" cx="907.71" cy="-33.42" rx="126.18" ry="18"/>
<text text-anchor="middle" x="907.71" y="-29.72" font-family="Times,serif" font-size="14.00">check_overlapping_areas</text>
</a>
</g>
</g>
<!-- compare_first_address_of_area -->
<g id="node17" class="node">
<title>compare_first_address_of_area</title>
<g id="a_node17"><a xlink:href="../src/check_overlapping_areas.c" xlink:title="compare_first_address_of_area">
<ellipse fill="none" stroke="black" cx="1121.48" cy="-130.28" rx="153.27" ry="18"/>
<text text-anchor="middle" x="1121.48" y="-126.58" font-family="Times,serif" font-size="14.00">compare_first_address_of_area</text>
</a>
</g>
</g>
<!-- check_overlapping_areas&#45;&gt;compare_first_address_of_area -->
<g id="edge12" class="edge">
<title>check_overlapping_areas&#45;&gt;compare_first_address_of_area</title>
<path fill="none" stroke="black" d="M1000.95,-45.69C1000.95,-45.69 1000.95,-109.01 1000.95,-109.01"/>
<polygon fill="black" stroke="black" points="997.45,-109.01 1000.95,-119.01 1004.45,-109.01 997.45,-109.01"/>
</g>
<!-- count_def -->
<g id="node18" class="node">
<title>count_def</title>
<g id="a_node18"><a xlink:href="../src/def_statement.c" xlink:title="count_def">
<ellipse fill="none" stroke="black" cx="584.71" cy="-594.42" rx="55.79" ry="18"/>
<text text-anchor="middle" x="584.71" y="-590.72" font-family="Times,serif" font-size="14.00">count_def</text>
</a>
</g>
</g>
<!-- find_mnemo -->
<g id="node19" class="node">
<title>find_mnemo</title>
<g id="a_node19"><a xlink:href="../src/find_mnemo.c" xlink:title="find_mnemo">
<ellipse fill="none" stroke="black" cx="338.71" cy="-747.42" rx="66.89" ry="18"/>
<text text-anchor="middle" x="338.71" y="-743.72" font-family="Times,serif" font-size="14.00">find_mnemo</text>
</a>
</g>
</g>
<!-- parse_line -->
<g id="node20" class="node">
<title>parse_line</title>
<g id="a_node20"><a xlink:href="../src/parse_line.c" xlink:title="parse_line">
<ellipse fill="none" stroke="black" cx="380.71" cy="-237.42" rx="57.69" ry="18"/>
<text text-anchor="middle" x="380.71" y="-233.72" font-family="Times,serif" font-size="14.00">parse_line</text>
</a>
</g>
</g>
<!-- scope_of_lines -->
<g id="node36" class="node">
<title>scope_of_lines</title>
<g id="a_node36"><a xlink:href="../src/scopes.c" xlink:title="scope_of_lines">
<ellipse fill="none" stroke="black" cx="636.32" cy="-1112.56" rx="76.89" ry="18"/>
<text text-anchor="middle" x="636.32" y="-1108.86" font-family="Times,serif" font-size="14.00">scope_of_lines</text>
</a>
</g>
</g>
<!-- scope_of_line -->
<g id="node37" class="node">
<title>scope_of_line</title>
<g id="a_node37"><a xlink:href="../src/scopes.c" xlink:title="scope_of_line">
<ellipse fill="none" stroke="black" cx="571.32" cy="-952.56" rx="71.49" ry="18"/>
<text text-anchor="middle" x="571.32" y="-948.86" font-family="Times,serif" font-size="14.00">scope_of_line</text>
</a>
</g>
</g>
<!-- scope_of_lines&#45;&gt;scope_of_line -->
<g id="edge28" class="edge">
<title>scope_of_lines&#45;&gt;scope_of_line</title>
<path fill="none" stroke="black" d="M616.58,-1095.13C616.58,-1095.13 616.58,-976.7 616.58,-976.7"/>
<polygon fill="black" stroke="black" points="620.08,-976.7 616.58,-966.7 613.08,-976.7 620.08,-976.7"/>
</g>
<!-- find_scopes -->
<g id="node38" class="node">
<title>find_scopes</title>
<g id="a_node38"><a xlink:href="../src/scopes.c" xlink:title="find_scopes">
<ellipse fill="none" stroke="black" cx="473.32" cy="-1142.56" rx="63.89" ry="18"/>
<text text-anchor="middle" x="473.32" y="-1138.86" font-family="Times,serif" font-size="14.00">find_scopes</text>
</a>
</g>
</g>
<!-- symcat -->
<g id="node39" class="node">
<title>symcat</title>
<g id="a_node39"><a xlink:href="../src/sym.c" xlink:title="symcat">
<ellipse fill="none" stroke="black" cx="618.82" cy="-237.57" rx="44.39" ry="18"/>
<text text-anchor="middle" x="618.82" y="-233.87" font-family="Times,serif" font-size="14.00">symcat</text>
</a>
</g>
</g>
<!-- symcat&#45;&gt;symlen -->
<g id="edge29" class="edge">
<title>symcat&#45;&gt;symlen</title>
<path fill="none" stroke="black" d="M646.98,-251.61C646.98,-251.61 646.98,-307.56 646.98,-307.56"/>
<polygon fill="black" stroke="black" points="643.48,-307.56 646.98,-317.56 650.48,-307.56 643.48,-307.56"/>
</g>
</g>
</svg>
