<?xml version="1.0" encoding="UTF-8" standalone="no"?>
<!DOCTYPE svg PUBLIC "-//W3C//DTD SVG 1.1//EN"
 "http://www.w3.org/Graphics/SVG/1.1/DTD/svg11.dtd">
<!-- Generated by graphviz version 2.50.0 (0)
 -->
<!-- Title: G Pages: 1 -->
<svg width="767pt" height="909pt"
 viewBox="0.00 0.00 767.14 909.00" xmlns="http://www.w3.org/2000/svg" xmlns:xlink="http://www.w3.org/1999/xlink">
<g id="graph0" class="graph" transform="scale(1 1) rotate(0) translate(4 905)">
<title>G</title>
<polygon fill="white" stroke="transparent" points="-4,4 -4,-905 763.14,-905 763.14,4 -4,4"/>
<text text-anchor="middle" x="379.57" y="-7.8" font-family="Times,serif" font-size="14.00">Include graph</text>
<g id="clust1" class="cluster">
<title>cluster_c</title>
<polygon fill="none" stroke="blue" points="8,-85 8,-839 291.78,-839 291.78,-85 8,-85"/>
</g>
<g id="clust2" class="cluster">
<title>cluster_h</title>
<polygon fill="none" stroke="blue" points="311.78,-31 311.78,-893 751.14,-893 751.14,-31 311.78,-31"/>
</g>
<!-- align.c -->
<g id="node1" class="node">
<title>align.c</title>
<ellipse fill="none" stroke="black" cx="149.89" cy="-813" rx="41.69" ry="18"/>
<text text-anchor="middle" x="149.89" y="-809.3" font-family="Times,serif" font-size="14.00">align.c</text>
</g>
<!-- align.h -->
<g id="node15" class="node">
<title>align.h</title>
<ellipse fill="none" stroke="black" cx="454.96" cy="-867" rx="42.49" ry="18"/>
<text text-anchor="middle" x="454.96" y="-863.3" font-family="Times,serif" font-size="14.00">align.h</text>
</g>
<!-- align.c&#45;&gt;align.h -->
<g id="edge1" class="edge">
<title>align.c&#45;&gt;align.h</title>
<path fill="none" stroke="black" d="M150.14,-831C150.14,-848.68 150.14,-873 150.14,-873 150.14,-873 405.11,-873 405.11,-873"/>
<polygon fill="black" stroke="black" points="405.11,-876.5 415.11,-873 405.11,-869.5 405.11,-876.5"/>
</g>
<!-- check_overlapping_areas.c -->
<g id="node2" class="node">
<title>check_overlapping_areas.c</title>
<ellipse fill="none" stroke="black" cx="149.89" cy="-759" rx="133.78" ry="18"/>
<text text-anchor="middle" x="149.89" y="-755.3" font-family="Times,serif" font-size="14.00">check_overlapping_areas.c</text>
</g>
<!-- check_overlapping_areas.h -->
<g id="node17" class="node">
<title>check_overlapping_areas.h</title>
<ellipse fill="none" stroke="black" cx="454.96" cy="-759" rx="135.38" ry="18"/>
<text text-anchor="middle" x="454.96" y="-755.3" font-family="Times,serif" font-size="14.00">check_overlapping_areas.h</text>
</g>
<!-- check_overlapping_areas.c&#45;&gt;check_overlapping_areas.h -->
<g id="edge2" class="edge">
<title>check_overlapping_areas.c&#45;&gt;check_overlapping_areas.h</title>
<path fill="none" stroke="black" d="M284.14,-759C284.14,-759 309.31,-759 309.31,-759"/>
<polygon fill="black" stroke="black" points="309.31,-762.5 319.31,-759 309.31,-755.5 309.31,-762.5"/>
</g>
<!-- compute_addresses.c -->
<g id="node3" class="node">
<title>compute_addresses.c</title>
<ellipse fill="none" stroke="black" cx="149.89" cy="-705" rx="109.68" ry="18"/>
<text text-anchor="middle" x="149.89" y="-701.3" font-family="Times,serif" font-size="14.00">compute_addresses.c</text>
</g>
<!-- compute_addresses.c&#45;&gt;align.h -->
<g id="edge4" class="edge">
<title>compute_addresses.c&#45;&gt;align.h</title>
<path fill="none" stroke="black" d="M253.55,-711C280.51,-711 302.14,-711 302.14,-711 302.14,-711 302.14,-861 302.14,-861 302.14,-861 404.81,-861 404.81,-861"/>
<polygon fill="black" stroke="black" points="404.81,-864.5 414.81,-861 404.81,-857.5 404.81,-864.5"/>
</g>
<!-- compute_addresses.h -->
<g id="node19" class="node">
<title>compute_addresses.h</title>
<ellipse fill="none" stroke="black" cx="454.96" cy="-705" rx="110.48" ry="18"/>
<text text-anchor="middle" x="454.96" y="-701.3" font-family="Times,serif" font-size="14.00">compute_addresses.h</text>
</g>
<!-- compute_addresses.c&#45;&gt;compute_addresses.h -->
<g id="edge5" class="edge">
<title>compute_addresses.c&#45;&gt;compute_addresses.h</title>
<path fill="none" stroke="black" d="M253.6,-699C253.6,-699 340.76,-699 340.76,-699"/>
<polygon fill="black" stroke="black" points="340.76,-702.5 350.76,-699 340.76,-695.5 340.76,-702.5"/>
</g>
<!-- conv_string.h -->
<g id="node21" class="node">
<title>conv_string.h</title>
<ellipse fill="none" stroke="black" cx="454.96" cy="-651" rx="73.39" ry="18"/>
<text text-anchor="middle" x="454.96" y="-647.3" font-family="Times,serif" font-size="14.00">conv_string.h</text>
</g>
<!-- compute_addresses.c&#45;&gt;conv_string.h -->
<g id="edge6" class="edge">
<title>compute_addresses.c&#45;&gt;conv_string.h</title>
<path fill="none" stroke="black" d="M257.14,-700.85C257.14,-689.71 257.14,-660 257.14,-660 257.14,-660 381.28,-660 381.28,-660"/>
<polygon fill="black" stroke="black" points="381.28,-663.5 391.28,-660 381.28,-656.5 381.28,-663.5"/>
</g>
<!-- mnemonic.h -->
<g id="node26" class="node">
<title>mnemonic.h</title>
<ellipse fill="none" stroke="black" cx="454.96" cy="-381" rx="67.69" ry="18"/>
<text text-anchor="middle" x="454.96" y="-377.3" font-family="Times,serif" font-size="14.00">mnemonic.h</text>
</g>
<!-- compute_addresses.c&#45;&gt;mnemonic.h -->
<g id="edge7" class="edge">
<title>compute_addresses.c&#45;&gt;mnemonic.h</title>
<path fill="none" stroke="black" d="M248.14,-696.65C248.14,-647.04 248.14,-393 248.14,-393 248.14,-393 394.37,-393 394.37,-393"/>
<polygon fill="black" stroke="black" points="394.37,-396.5 404.37,-393 394.37,-389.5 394.37,-396.5"/>
</g>
<!-- compute_size.c -->
<g id="node4" class="node">
<title>compute_size.c</title>
<ellipse fill="none" stroke="black" cx="149.89" cy="-543" rx="81.49" ry="18"/>
<text text-anchor="middle" x="149.89" y="-539.3" font-family="Times,serif" font-size="14.00">compute_size.c</text>
</g>
<!-- compute_size.h -->
<g id="node20" class="node">
<title>compute_size.h</title>
<ellipse fill="none" stroke="black" cx="454.96" cy="-489" rx="81.79" ry="18"/>
<text text-anchor="middle" x="454.96" y="-485.3" font-family="Times,serif" font-size="14.00">compute_size.h</text>
</g>
<!-- compute_size.c&#45;&gt;compute_size.h -->
<g id="edge9" class="edge">
<title>compute_size.c&#45;&gt;compute_size.h</title>
<path fill="none" stroke="black" d="M231.33,-543C296.88,-543 378.14,-543 378.14,-543 378.14,-543 378.14,-505.62 378.14,-505.62"/>
<polygon fill="black" stroke="black" points="381.64,-505.62 378.14,-495.62 374.64,-505.62 381.64,-505.62"/>
</g>
<!-- compute_size.c&#45;&gt;conv_string.h -->
<g id="edge10" class="edge">
<title>compute_size.c&#45;&gt;conv_string.h</title>
<path fill="none" stroke="black" d="M227.14,-548.61C227.14,-569.55 227.14,-642 227.14,-642 227.14,-642 381.2,-642 381.2,-642"/>
<polygon fill="black" stroke="black" points="381.2,-645.5 391.2,-642 381.2,-638.5 381.2,-645.5"/>
</g>
<!-- compute_size.c&#45;&gt;mnemonic.h -->
<g id="edge11" class="edge">
<title>compute_size.c&#45;&gt;mnemonic.h</title>
<path fill="none" stroke="black" d="M217.14,-532.74C217.14,-510.95 217.14,-462 217.14,-462 217.14,-462 396.14,-462 396.14,-462 396.14,-462 396.14,-399.98 396.14,-399.98"/>
<polygon fill="black" stroke="black" points="399.64,-399.98 396.14,-389.98 392.64,-399.98 399.64,-399.98"/>
</g>
<!-- conv_string.c -->
<g id="node5" class="node">
<title>conv_string.c</title>
<ellipse fill="none" stroke="black" cx="149.89" cy="-651" rx="72.29" ry="18"/>
<text text-anchor="middle" x="149.89" y="-647.3" font-family="Times,serif" font-size="14.00">conv_string.c</text>
</g>
<!-- conv_string.c&#45;&gt;conv_string.h -->
<g id="edge13" class="edge">
<title>conv_string.c&#45;&gt;conv_string.h</title>
<path fill="none" stroke="black" d="M222.19,-651C222.19,-651 371.33,-651 371.33,-651"/>
<polygon fill="black" stroke="black" points="371.33,-654.5 381.33,-651 371.33,-647.5 371.33,-654.5"/>
</g>
<!-- def_statement.c -->
<g id="node6" class="node">
<title>def_statement.c</title>
<ellipse fill="none" stroke="black" cx="149.89" cy="-327" rx="85.29" ry="18"/>
<text text-anchor="middle" x="149.89" y="-323.3" font-family="Times,serif" font-size="14.00">def_statement.c</text>
</g>
<!-- def_statement.h -->
<g id="node22" class="node">
<title>def_statement.h</title>
<ellipse fill="none" stroke="black" cx="454.96" cy="-273" rx="85.59" ry="18"/>
<text text-anchor="middle" x="454.96" y="-269.3" font-family="Times,serif" font-size="14.00">def_statement.h</text>
</g>
<!-- def_statement.c&#45;&gt;def_statement.h -->
<g id="edge14" class="edge">
<title>def_statement.c&#45;&gt;def_statement.h</title>
<path fill="none" stroke="black" d="M230.14,-320.74C230.14,-308.38 230.14,-282 230.14,-282 230.14,-282 370.41,-282 370.41,-282"/>
<polygon fill="black" stroke="black" points="370.41,-285.5 380.41,-282 370.41,-278.5 370.41,-285.5"/>
</g>
<!-- def_statement.c&#45;&gt;mnemonic.h -->
<g id="edge15" class="edge">
<title>def_statement.c&#45;&gt;mnemonic.h</title>
<path fill="none" stroke="black" d="M235.15,-327C238.91,-327 241.14,-327 241.14,-327 241.14,-327 241.14,-381 241.14,-381 241.14,-381 377.31,-381 377.31,-381"/>
<polygon fill="black" stroke="black" points="377.31,-384.5 387.31,-381 377.31,-377.5 377.31,-384.5"/>
</g>
<!-- find_labels.c -->
<g id="node7" class="node">
<title>find_labels.c</title>
<ellipse fill="none" stroke="black" cx="149.89" cy="-219" rx="67.69" ry="18"/>
<text text-anchor="middle" x="149.89" y="-215.3" font-family="Times,serif" font-size="14.00">find_labels.c</text>
</g>
<!-- find_labels.h -->
<g id="node23" class="node">
<title>find_labels.h</title>
<ellipse fill="none" stroke="black" cx="454.96" cy="-165" rx="68.79" ry="18"/>
<text text-anchor="middle" x="454.96" y="-161.3" font-family="Times,serif" font-size="14.00">find_labels.h</text>
</g>
<!-- find_labels.c&#45;&gt;find_labels.h -->
<g id="edge17" class="edge">
<title>find_labels.c&#45;&gt;find_labels.h</title>
<path fill="none" stroke="black" d="M213.62,-213C286.59,-213 396.14,-213 396.14,-213 396.14,-213 396.14,-184.71 396.14,-184.71"/>
<polygon fill="black" stroke="black" points="399.64,-184.71 396.14,-174.71 392.64,-184.71 399.64,-184.71"/>
</g>
<!-- scopes.h -->
<g id="node30" class="node">
<title>scopes.h</title>
<ellipse fill="none" stroke="black" cx="454.96" cy="-219" rx="50.89" ry="18"/>
<text text-anchor="middle" x="454.96" y="-215.3" font-family="Times,serif" font-size="14.00">scopes.h</text>
</g>
<!-- find_labels.c&#45;&gt;scopes.h -->
<g id="edge18" class="edge">
<title>find_labels.c&#45;&gt;scopes.h</title>
<path fill="none" stroke="black" d="M217.59,-219C217.59,-219 394.04,-219 394.04,-219"/>
<polygon fill="black" stroke="black" points="394.04,-222.5 404.04,-219 394.04,-215.5 394.04,-222.5"/>
</g>
<!-- find_mnemo.c -->
<g id="node8" class="node">
<title>find_mnemo.c</title>
<ellipse fill="none" stroke="black" cx="149.89" cy="-381" rx="74.99" ry="18"/>
<text text-anchor="middle" x="149.89" y="-377.3" font-family="Times,serif" font-size="14.00">find_mnemo.c</text>
</g>
<!-- find_mnemo.h -->
<g id="node24" class="node">
<title>find_mnemo.h</title>
<ellipse fill="none" stroke="black" cx="454.96" cy="-327" rx="75.29" ry="18"/>
<text text-anchor="middle" x="454.96" y="-323.3" font-family="Times,serif" font-size="14.00">find_mnemo.h</text>
</g>
<!-- find_mnemo.c&#45;&gt;find_mnemo.h -->
<g id="edge20" class="edge">
<title>find_mnemo.c&#45;&gt;find_mnemo.h</title>
<path fill="none" stroke="black" d="M220.49,-375C289.46,-375 384.14,-375 384.14,-375 384.14,-375 384.14,-343.28 384.14,-343.28"/>
<polygon fill="black" stroke="black" points="387.64,-343.28 384.14,-333.28 380.64,-343.28 387.64,-343.28"/>
</g>
<!-- find_mnemo.c&#45;&gt;mnemonic.h -->
<g id="edge21" class="edge">
<title>find_mnemo.c&#45;&gt;mnemonic.h</title>
<path fill="none" stroke="black" d="M220.65,-387C220.65,-387 381.08,-387 381.08,-387"/>
<polygon fill="black" stroke="black" points="381.08,-390.5 391.08,-387 381.08,-383.5 381.08,-390.5"/>
</g>
<!-- import_symbols.c -->
<g id="node9" class="node">
<title>import_symbols.c</title>
<ellipse fill="none" stroke="black" cx="149.89" cy="-165" rx="92.08" ry="18"/>
<text text-anchor="middle" x="149.89" y="-161.3" font-family="Times,serif" font-size="14.00">import_symbols.c</text>
</g>
<!-- import_symbols.h -->
<g id="node25" class="node">
<title>import_symbols.h</title>
<ellipse fill="none" stroke="black" cx="454.96" cy="-111" rx="92.88" ry="18"/>
<text text-anchor="middle" x="454.96" y="-107.3" font-family="Times,serif" font-size="14.00">import_symbols.h</text>
</g>
<!-- import_symbols.c&#45;&gt;import_symbols.h -->
<g id="edge23" class="edge">
<title>import_symbols.c&#45;&gt;import_symbols.h</title>
<path fill="none" stroke="black" d="M242.23,-165C301,-165 366.14,-165 366.14,-165 366.14,-165 366.14,-126.38 366.14,-126.38"/>
<polygon fill="black" stroke="black" points="369.64,-126.38 366.14,-116.38 362.64,-126.38 369.64,-126.38"/>
</g>
<!-- import_symbols.c&#45;&gt;scopes.h -->
<g id="edge24" class="edge">
<title>import_symbols.c&#45;&gt;scopes.h</title>
<path fill="none" stroke="black" d="M240.14,-168.88C240.14,-179.27 240.14,-207 240.14,-207 240.14,-207 407.05,-207 407.05,-207"/>
<polygon fill="black" stroke="black" points="407.05,-210.5 417.05,-207 407.05,-203.5 407.05,-210.5"/>
</g>
<!-- parse_line.c -->
<g id="node10" class="node">
<title>parse_line.c</title>
<ellipse fill="none" stroke="black" cx="149.89" cy="-111" rx="65.79" ry="18"/>
<text text-anchor="middle" x="149.89" y="-107.3" font-family="Times,serif" font-size="14.00">parse_line.c</text>
</g>
<!-- common.h -->
<g id="node18" class="node">
<title>common.h</title>
<ellipse fill="none" stroke="black" cx="684.65" cy="-300" rx="58.49" ry="18"/>
<text text-anchor="middle" x="684.65" y="-296.3" font-family="Times,serif" font-size="14.00">common.h</text>
</g>
<!-- parse_line.c&#45;&gt;common.h -->
<g id="edge26" class="edge">
<title>parse_line.c&#45;&gt;common.h</title>
<path fill="none" stroke="black" d="M215.62,-111C236.44,-111 254.14,-111 254.14,-111 254.14,-111 254.14,-300 254.14,-300 254.14,-300 616.14,-300 616.14,-300"/>
<polygon fill="black" stroke="black" points="616.14,-303.5 626.14,-300 616.14,-296.5 616.14,-303.5"/>
</g>
<!-- parse_line.h -->
<g id="node27" class="node">
<title>parse_line.h</title>
<ellipse fill="none" stroke="black" cx="454.96" cy="-57" rx="66.89" ry="18"/>
<text text-anchor="middle" x="454.96" y="-53.3" font-family="Times,serif" font-size="14.00">parse_line.h</text>
</g>
<!-- parse_line.c&#45;&gt;parse_line.h -->
<g id="edge27" class="edge">
<title>parse_line.c&#45;&gt;parse_line.h</title>
<path fill="none" stroke="black" d="M150.14,-92.72C150.14,-77.05 150.14,-57 150.14,-57 150.14,-57 377.69,-57 377.69,-57"/>
<polygon fill="black" stroke="black" points="377.69,-60.5 387.69,-57 377.69,-53.5 377.69,-60.5"/>
</g>
<!-- pointer.c -->
<g id="node11" class="node">
<title>pointer.c</title>
<ellipse fill="none" stroke="black" cx="149.89" cy="-435" rx="51.19" ry="18"/>
<text text-anchor="middle" x="149.89" y="-431.3" font-family="Times,serif" font-size="14.00">pointer.c</text>
</g>
<!-- pointer.h -->
<g id="node28" class="node">
<title>pointer.h</title>
<ellipse fill="none" stroke="black" cx="454.96" cy="-435" rx="51.99" ry="18"/>
<text text-anchor="middle" x="454.96" y="-431.3" font-family="Times,serif" font-size="14.00">pointer.h</text>
</g>
<!-- pointer.c&#45;&gt;pointer.h -->
<g id="edge29" class="edge">
<title>pointer.c&#45;&gt;pointer.h</title>
<path fill="none" stroke="black" d="M198.57,-429C198.57,-429 395.7,-429 395.7,-429"/>
<polygon fill="black" stroke="black" points="395.7,-432.5 405.7,-429 395.7,-425.5 395.7,-432.5"/>
</g>
<!-- rpn.c -->
<g id="node12" class="node">
<title>rpn.c</title>
<ellipse fill="none" stroke="black" cx="149.89" cy="-597" rx="34.39" ry="18"/>
<text text-anchor="middle" x="149.89" y="-593.3" font-family="Times,serif" font-size="14.00">rpn.c</text>
</g>
<!-- rpn.c&#45;&gt;conv_string.h -->
<g id="edge30" class="edge">
<title>rpn.c&#45;&gt;conv_string.h</title>
<path fill="none" stroke="black" d="M179.95,-606C246.25,-606 399.14,-606 399.14,-606 399.14,-606 399.14,-629.18 399.14,-629.18"/>
<polygon fill="black" stroke="black" points="395.64,-629.18 399.14,-639.18 402.64,-629.18 395.64,-629.18"/>
</g>
<!-- rpn.h -->
<g id="node29" class="node">
<title>rpn.h</title>
<ellipse fill="none" stroke="black" cx="454.96" cy="-597" rx="36" ry="18"/>
<text text-anchor="middle" x="454.96" y="-593.3" font-family="Times,serif" font-size="14.00">rpn.h</text>
</g>
<!-- rpn.c&#45;&gt;rpn.h -->
<g id="edge31" class="edge">
<title>rpn.c&#45;&gt;rpn.h</title>
<path fill="none" stroke="black" d="M184.59,-597C184.59,-597 408.88,-597 408.88,-597"/>
<polygon fill="black" stroke="black" points="408.88,-600.5 418.88,-597 408.88,-593.5 408.88,-600.5"/>
</g>
<!-- sym.h -->
<g id="node31" class="node">
<title>sym.h</title>
<ellipse fill="none" stroke="black" cx="454.96" cy="-543" rx="38.19" ry="18"/>
<text text-anchor="middle" x="454.96" y="-539.3" font-family="Times,serif" font-size="14.00">sym.h</text>
</g>
<!-- rpn.c&#45;&gt;sym.h -->
<g id="edge32" class="edge">
<title>rpn.c&#45;&gt;sym.h</title>
<path fill="none" stroke="black" d="M179.77,-588C205.37,-588 238.14,-588 238.14,-588 238.14,-588 238.14,-552 238.14,-552 238.14,-552 411.56,-552 411.56,-552"/>
<polygon fill="black" stroke="black" points="411.56,-555.5 421.56,-552 411.56,-548.5 411.56,-555.5"/>
</g>
<!-- scopes.c -->
<g id="node13" class="node">
<title>scopes.c</title>
<ellipse fill="none" stroke="black" cx="149.89" cy="-273" rx="50.09" ry="18"/>
<text text-anchor="middle" x="149.89" y="-269.3" font-family="Times,serif" font-size="14.00">scopes.c</text>
</g>
<!-- scopes.c&#45;&gt;mnemonic.h -->
<g id="edge34" class="edge">
<title>scopes.c&#45;&gt;mnemonic.h</title>
<path fill="none" stroke="black" d="M200.22,-273C225.63,-273 251.14,-273 251.14,-273 251.14,-273 251.14,-369 251.14,-369 251.14,-369 394.58,-369 394.58,-369"/>
<polygon fill="black" stroke="black" points="394.58,-372.5 404.58,-369 394.58,-365.5 394.58,-372.5"/>
</g>
<!-- scopes.c&#45;&gt;scopes.h -->
<g id="edge35" class="edge">
<title>scopes.c&#45;&gt;scopes.h</title>
<path fill="none" stroke="black" d="M193.51,-264C209.67,-264 224.14,-264 224.14,-264 224.14,-264 224.14,-225 224.14,-225 224.14,-225 397.14,-225 397.14,-225"/>
<polygon fill="black" stroke="black" points="397.14,-228.5 407.14,-225 397.14,-221.5 397.14,-228.5"/>
</g>
<!-- sym.c -->
<g id="node14" class="node">
<title>sym.c</title>
<ellipse fill="none" stroke="black" cx="149.89" cy="-489" rx="37.89" ry="18"/>
<text text-anchor="middle" x="149.89" y="-485.3" font-family="Times,serif" font-size="14.00">sym.c</text>
</g>
<!-- sym.c&#45;&gt;pointer.h -->
<g id="edge37" class="edge">
<title>sym.c&#45;&gt;pointer.h</title>
<path fill="none" stroke="black" d="M182.63,-480C196.34,-480 209.14,-480 209.14,-480 209.14,-480 209.14,-441 209.14,-441 209.14,-441 395.81,-441 395.81,-441"/>
<polygon fill="black" stroke="black" points="395.81,-444.5 405.81,-441 395.81,-437.5 395.81,-444.5"/>
</g>
<!-- sym.c&#45;&gt;scopes.h -->
<g id="edge38" class="edge">
<title>sym.c&#45;&gt;scopes.h</title>
<path fill="none" stroke="black" d="M187.81,-489C214.37,-489 245.14,-489 245.14,-489 245.14,-489 245.14,-231 245.14,-231 245.14,-231 406.97,-231 406.97,-231"/>
<polygon fill="black" stroke="black" points="406.97,-234.5 416.97,-231 406.97,-227.5 406.97,-234.5"/>
</g>
<!-- sym.c&#45;&gt;sym.h -->
<g id="edge39" class="edge">
<title>sym.c&#45;&gt;sym.h</title>
<path fill="none" stroke="black" d="M182.88,-498C207.58,-498 237.14,-498 237.14,-498 237.14,-498 237.14,-534 237.14,-534 237.14,-534 411.41,-534 411.41,-534"/>
<polygon fill="black" stroke="black" points="411.41,-537.5 421.41,-534 411.41,-530.5 411.41,-537.5"/>
</g>
<!-- assembler.h -->
<g id="node16" class="node">
<title>assembler.h</title>
<ellipse fill="none" stroke="black" cx="454.96" cy="-813" rx="66.09" ry="18"/>
<text text-anchor="middle" x="454.96" y="-809.3" font-family="Times,serif" font-size="14.00">assembler.h</text>
</g>
<!-- check_overlapping_areas.h&#45;&gt;common.h -->
<g id="edge3" class="edge">
<title>check_overlapping_areas.h&#45;&gt;common.h</title>
<path fill="none" stroke="black" d="M578.14,-751.31C578.14,-692.45 578.14,-315.75 578.14,-315.75 578.14,-315.75 646.11,-315.75 646.11,-315.75"/>
<polygon fill="black" stroke="black" points="646.11,-319.25 656.11,-315.75 646.11,-312.25 646.11,-319.25"/>
</g>
<!-- compute_addresses.h&#45;&gt;common.h -->
<g id="edge8" class="edge">
<title>compute_addresses.h&#45;&gt;common.h</title>
<path fill="none" stroke="black" d="M557.14,-697.87C557.14,-644.81 557.14,-313.5 557.14,-313.5 557.14,-313.5 635.7,-313.5 635.7,-313.5"/>
<polygon fill="black" stroke="black" points="635.7,-317 645.7,-313.5 635.7,-310 635.7,-317"/>
</g>
<!-- compute_size.h&#45;&gt;common.h -->
<g id="edge12" class="edge">
<title>compute_size.h&#45;&gt;common.h</title>
<path fill="none" stroke="black" d="M537.08,-489C592.71,-489 656.14,-489 656.14,-489 656.14,-489 656.14,-325.79 656.14,-325.79"/>
<polygon fill="black" stroke="black" points="659.64,-325.79 656.14,-315.79 652.64,-325.79 659.64,-325.79"/>
</g>
<!-- def_statement.h&#45;&gt;common.h -->
<g id="edge16" class="edge">
<title>def_statement.h&#45;&gt;common.h</title>
<path fill="none" stroke="black" d="M502.55,-288C502.55,-288 631,-288 631,-288"/>
<polygon fill="black" stroke="black" points="631,-291.5 641,-288 631,-284.5 631,-291.5"/>
</g>
<!-- find_labels.h&#45;&gt;common.h -->
<g id="edge19" class="edge">
<title>find_labels.h&#45;&gt;common.h</title>
<path fill="none" stroke="black" d="M524.03,-165C591.83,-165 685.14,-165 685.14,-165 685.14,-165 685.14,-271.79 685.14,-271.79"/>
<polygon fill="black" stroke="black" points="681.64,-271.79 685.14,-281.79 688.64,-271.79 681.64,-271.79"/>
</g>
<!-- find_mnemo.h&#45;&gt;common.h -->
<g id="edge22" class="edge">
<title>find_mnemo.h&#45;&gt;common.h</title>
<path fill="none" stroke="black" d="M491.61,-311.25C491.61,-311.25 628.62,-311.25 628.62,-311.25"/>
<polygon fill="black" stroke="black" points="628.62,-314.75 638.62,-311.25 628.62,-307.75 628.62,-314.75"/>
</g>
<!-- import_symbols.h&#45;&gt;common.h -->
<g id="edge25" class="edge">
<title>import_symbols.h&#45;&gt;common.h</title>
<path fill="none" stroke="black" d="M545.14,-115.65C545.14,-143.32 545.14,-285 545.14,-285 545.14,-285 642.29,-285 642.29,-285"/>
<polygon fill="black" stroke="black" points="642.29,-288.5 652.29,-285 642.29,-281.5 642.29,-288.5"/>
</g>
<!-- parse_line.h&#45;&gt;common.h -->
<g id="edge28" class="edge">
<title>parse_line.h&#45;&gt;common.h</title>
<path fill="none" stroke="black" d="M522.05,-57C598.84,-57 714.14,-57 714.14,-57 714.14,-57 714.14,-274.43 714.14,-274.43"/>
<polygon fill="black" stroke="black" points="710.64,-274.43 714.14,-284.43 717.64,-274.43 710.64,-274.43"/>
</g>
<!-- rpn.h&#45;&gt;common.h -->
<g id="edge33" class="edge">
<title>rpn.h&#45;&gt;common.h</title>
<path fill="none" stroke="black" d="M490.73,-597C561.83,-597 714.14,-597 714.14,-597 714.14,-597 714.14,-325.55 714.14,-325.55"/>
<polygon fill="black" stroke="black" points="717.64,-325.55 714.14,-315.55 710.64,-325.55 717.64,-325.55"/>
</g>
<!-- scopes.h&#45;&gt;common.h -->
<g id="edge36" class="edge">
<title>scopes.h&#45;&gt;common.h</title>
<path fill="none" stroke="black" d="M505.73,-219C565.33,-219 656.14,-219 656.14,-219 656.14,-219 656.14,-274 656.14,-274"/>
<polygon fill="black" stroke="black" points="652.64,-274 656.14,-284 659.64,-274 652.64,-274"/>
</g>
<!-- sym.h&#45;&gt;common.h -->
<g id="edge40" class="edge">
<title>sym.h&#45;&gt;common.h</title>
<path fill="none" stroke="black" d="M493.49,-543C559.02,-543 685.14,-543 685.14,-543 685.14,-543 685.14,-328.26 685.14,-328.26"/>
<polygon fill="black" stroke="black" points="688.64,-328.26 685.14,-318.26 681.64,-328.26 688.64,-328.26"/>
</g>
</g>
</svg>
